<svg width="72" height="72" viewBox="0 0 72 72" fill="none" xmlns="http://www.w3.org/2000/svg">
<g clip-path="url(#clip0_1183_2916)">
<rect width="72" height="72" rx="36" fill="#E8E8E8"/>
<circle cx="24" cy="45" r="8" fill="#212121"/>
<circle cx="50" cy="45" r="8" fill="#212121"/>
<ellipse cx="37" cy="79.3125" rx="36" ry="33.1875" fill="#F5C6BC"/>
<ellipse cx="37" cy="43.3125" rx="7.875" ry="6.1875" fill="#EE9595"/>
<circle cx="16.875" cy="32.625" r="5.625" fill="#F5C6BC"/>
<circle cx="37" cy="27" r="20.25" fill="#F5C6BC"/>
<circle cx="29.125" cy="34.875" r="2.25" fill="#212121"/>
<circle cx="39.25" cy="34.875" r="2.25" fill="#212121"/>
<path fill-rule="evenodd" clip-rule="evenodd" d="M45.5 39.3333C45.5 38.0447 44.4926 37 43.25 37C42.0074 37 41 37.5833 41 39.3333C41 41.0833 45.5 44 45.5 44C45.5 44 50 41.1667 50 39.3333C50 37.5 48.9926 37 47.75 37C46.5074 37 45.5 38.0447 45.5 39.3333Z" fill="#F05D5D"/>
<circle cx="57.125" cy="32.625" r="5.625" fill="#F5C6BC"/>
<path d="M36.4375 5.625C24.9431 5.625 15.625 15.1949 15.625 27H57.25C57.25 15.1949 47.9319 5.625 36.4375 5.625Z" fill="#212121"/>
<path d="M27 19L27.866 28H26.134L27 19Z" fill="#F5C6BC"/>
<path d="M35 19L35.866 28H34.134L35 19Z" fill="#F5C6BC"/>
<path d="M43 19L43.866 28H42.134L43 19Z" fill="#F5C6BC"/>
<path fill-rule="evenodd" clip-rule="evenodd" d="M37 54.9999C41.4183 54.9999 45 52.3136 45 48.9999C45 48.2383 44.8108 47.5099 44.4658 46.8396C60.7653 50.0085 73 63.3434 73 79.3125C73 97.6415 56.8823 112.5 37 112.5C17.1177 112.5 1 97.6415 1 79.3125C1 63.3434 13.2347 50.0085 29.5342 46.8396C29.1892 47.5099 29 48.2383 29 48.9999C29 52.3136 32.5817 54.9999 37 54.9999Z" fill="#B1B1B1"/>
</g>
<rect x="1" y="1" width="70" height="70" rx="35" stroke="#E8E8E8" stroke-width="2"/>
<defs>
<clipPath id="clip0_1183_2916">
<rect width="72" height="72" rx="36" fill="white"/>
</clipPath>
</defs>
</svg>
