<svg width="72" height="72" viewBox="0 0 72 72" fill="none" xmlns="http://www.w3.org/2000/svg">
<g clip-path="url(#clip0_958_8541)">
<rect width="72" height="72" rx="36" fill="white"/>
<rect x="-3" y="-2" width="77" height="77" rx="8" fill="url(#paint0_angular_958_8541)"/>
<path fill-rule="evenodd" clip-rule="evenodd" d="M22.5742 10.1953C26.1147 7.33273 30.5819 5.625 35.4375 5.625C40.2931 5.625 44.7603 7.33273 48.3008 10.1953C48.6941 10.1489 49.0943 10.125 49.5 10.125C55.0919 10.125 59.625 14.6581 59.625 20.25C59.625 22.9689 58.5533 25.4376 56.8092 27.2565C59.093 27.9723 60.75 30.1051 60.75 32.625C60.75 35.7316 58.2316 38.25 55.125 38.25C54.4067 38.25 53.7198 38.1154 53.0883 37.8699C49.4935 43.5095 43.1836 47.25 36 47.25C28.8164 47.25 22.5065 43.5095 18.9117 37.8699C18.2802 38.1154 17.5933 38.25 16.875 38.25C13.7684 38.25 11.25 35.7316 11.25 32.625C11.25 30.4112 12.5289 28.496 14.3883 27.5781C12.4548 25.7342 11.25 23.1328 11.25 20.25C11.25 14.6581 15.7831 10.125 21.375 10.125C21.7807 10.125 22.1809 10.1489 22.5742 10.1953ZM30.375 34.875C30.375 36.1176 29.3676 37.125 28.125 37.125C26.8824 37.125 25.875 36.1176 25.875 34.875C25.875 33.6324 26.8824 32.625 28.125 32.625C29.3676 32.625 30.375 33.6324 30.375 34.875ZM38.25 37.125C39.4926 37.125 40.5 36.1176 40.5 34.875C40.5 33.6324 39.4926 32.625 38.25 32.625C37.0074 32.625 36 33.6324 36 34.875C36 36.1176 37.0074 37.125 38.25 37.125ZM17 23C17 22.4477 16.5523 22 16 22C15.4477 22 15 22.4477 15 23C15 26.866 18.134 30 22 30C24.5463 30 26.7751 28.6404 28 26.6076C29.2249 28.6404 31.4537 30 34 30C36.5463 30 38.7751 28.6404 40 26.6076C41.2249 28.6404 43.4537 30 46 30C49.866 30 53 26.866 53 23C53 22.4477 52.5523 22 52 22C51.4477 22 51 22.4477 51 23C51 25.7614 48.7614 28 46 28C43.2386 28 41 25.7614 41 23C41 22.4477 40.5523 22 40 22C39.4477 22 39 22.4477 39 23C39 25.7614 36.7614 28 34 28C31.2386 28 29 25.7614 29 23C29 22.4477 28.5523 22 28 22C27.4477 22 27 22.4477 27 23C27 25.7614 24.7614 28 22 28C19.2386 28 17 25.7614 17 23Z" fill="white"/>
<path fill-rule="evenodd" clip-rule="evenodd" d="M28.6722 46.813C12.3038 49.9333 0 63.2983 0 79.3125C0 97.6414 16.1177 112.5 36 112.5C55.8823 112.5 72 97.6414 72 79.3125C72 63.2983 59.6962 49.9333 43.3278 46.813C42.0899 49.2783 39.2748 51 36 51C32.7252 51 29.9101 49.2783 28.6722 46.813Z" fill="white"/>
</g>
<rect x="1" y="1" width="70" height="70" rx="35" stroke="#E8E8E8" stroke-width="2"/>
<defs>
<radialGradient id="paint0_angular_958_8541" cx="0" cy="0" r="1" gradientUnits="userSpaceOnUse" gradientTransform="translate(35.5 36.5) rotate(-89.2408) scale(43.367 48.5148)">
<stop stop-color="#9CE82E"/>
<stop offset="0.380975" stop-color="#FC86CA"/>
<stop offset="0.682536" stop-color="#1BCBE0"/>
</radialGradient>
<clipPath id="clip0_958_8541">
<rect width="72" height="72" rx="36" fill="white"/>
</clipPath>
</defs>
</svg>
