<svg width="72" height="72" viewBox="0 0 72 72" fill="none" xmlns="http://www.w3.org/2000/svg">
<g clip-path="url(#clip0_285_55055)">
<rect width="72" height="72" rx="36" fill="#E8E8E8"/>
<ellipse cx="37" cy="79.3125" rx="36" ry="33.1875" fill="#F5C6BC"/>
<path fill-rule="evenodd" clip-rule="evenodd" d="M29.2786 46.8901L37 60.1875L44.7214 46.8901C60.893 50.1481 73 63.4269 73 79.3125C73 97.6414 56.8823 112.5 37 112.5C17.1177 112.5 1 97.6414 1 79.3125C1 63.4269 13.107 50.1481 29.2786 46.8901Z" fill="white"/>
<mask id="mask0_285_55055" style="mask-type:alpha" maskUnits="userSpaceOnUse" x="1" y="46" width="72" height="67">
<ellipse cx="37" cy="79.3125" rx="36" ry="33.1875" fill="#F5BCBC"/>
</mask>
<g mask="url(#mask0_285_55055)">
<path d="M36.9349 61.2457C37.2087 61.2818 37.4599 61.0891 37.4959 60.8153C37.5319 60.5415 37.3392 60.2903 37.0655 60.2543L36.9349 61.2457ZM28.7124 45.8428C27.2647 47.9608 25.0853 51.1467 23.3838 53.8037C22.5344 55.1301 21.7964 56.3365 21.3276 57.2163C21.0964 57.6502 20.9155 58.0325 20.8251 58.3197C20.7841 58.4499 20.7379 58.6306 20.7595 58.8069C20.7713 58.9031 20.8094 59.0485 20.9316 59.171C21.0629 59.3027 21.225 59.3424 21.3531 59.3424V58.3424C21.4234 58.3424 21.5406 58.3656 21.6397 58.4649C21.7296 58.555 21.748 58.6523 21.7521 58.6853C21.7582 58.7354 21.7444 58.7299 21.779 58.6199C21.8397 58.4269 21.9825 58.1138 22.2101 57.6865C22.6589 56.8442 23.3786 55.6661 24.2259 54.343C25.9178 51.7011 28.0881 48.5283 29.538 46.4072L28.7124 45.8428ZM21.3531 59.3424C21.5486 59.3424 22.3025 59.4166 23.4534 59.5478C24.5839 59.6767 26.0561 59.8553 27.6516 60.0539C30.8422 60.4511 34.521 60.9279 36.9349 61.2457L37.0655 60.2543C34.6501 59.9363 30.9689 59.4592 27.7751 59.0616C26.1785 58.8628 24.7023 58.6837 23.5667 58.5543C22.4514 58.4271 21.6213 58.3424 21.3531 58.3424V59.3424Z" fill="#CACACA"/>
<path d="M44.462 46.4072C44.3062 46.1792 44.3647 45.868 44.5926 45.7122C44.8206 45.5564 45.1318 45.6149 45.2876 45.8428L44.462 46.4072ZM45.2876 45.8428C46.7353 47.9608 48.9147 51.1467 50.6162 53.8037C51.4656 55.1301 52.2036 56.3365 52.6724 57.2163C52.9036 57.6502 53.0845 58.0325 53.1749 58.3197C53.2159 58.4499 53.2621 58.6306 53.2405 58.8069C53.2287 58.9031 53.1906 59.0485 53.0684 59.171C52.9371 59.3027 52.775 59.3424 52.6469 59.3424V58.3424C52.5766 58.3424 52.4594 58.3656 52.3603 58.4649C52.2704 58.555 52.252 58.6523 52.2479 58.6853C52.2418 58.7354 52.2556 58.7299 52.221 58.6199C52.1603 58.4269 52.0175 58.1138 51.7899 57.6865C51.3411 56.8442 50.6214 55.6661 49.7741 54.343C48.0822 51.7011 45.9119 48.5283 44.462 46.4072L45.2876 45.8428ZM52.6469 59.3424C52.4514 59.3424 51.6975 59.4166 50.5466 59.5478C49.4161 59.6767 47.9439 59.8553 46.3484 60.0539C43.1578 60.4511 39.479 60.9279 37.0651 61.2457L36.9345 60.2543C39.3499 59.9363 43.0311 59.4592 46.2249 59.0616C47.8215 58.8628 49.2977 58.6837 50.4333 58.5543C51.5486 58.4271 52.3787 58.3424 52.6469 58.3424V59.3424Z" fill="#CACACA"/>
<ellipse cx="37" cy="43.3125" rx="7.875" ry="6.1875" fill="#EE9595"/>
</g>
<circle cx="17.875" cy="32.625" r="5.625" fill="#F5C6BC"/>
<circle cx="37" cy="27" r="20.25" fill="#F5C6BC"/>
<circle cx="29.125" cy="34.875" r="2.25" fill="#212121"/>
<circle cx="39.25" cy="34.875" r="2.25" fill="#212121"/>
<circle opacity="0.4" cx="44.875" cy="39.375" r="3.375" fill="#FF85CB"/>
<circle cx="56.125" cy="32.625" r="5.625" fill="#F5C6BC"/>
<circle cx="22.375" cy="20.25" r="10.125" fill="#212121"/>
<circle cx="35.875" cy="20.25" r="10.125" fill="#212121"/>
<circle cx="50.5" cy="20.25" r="10.125" fill="#212121"/>
<path d="M36.4375 5.625C24.9431 5.625 15.625 15.1949 15.625 27H57.25C57.25 15.1949 47.9319 5.625 36.4375 5.625Z" fill="#212121"/>
<rect x="34" y="61" width="6" height="4" rx="1" fill="#484848"/>
<path d="M33.781 66.7519C33.9061 65.7511 34.7569 65 35.7656 65H38.2344C39.2431 65 40.0939 65.7511 40.219 66.7519L40.719 70.7519C40.8682 71.9456 39.9374 73 38.7344 73H35.2656C34.0626 73 33.1318 71.9456 33.281 70.7519L33.781 66.7519Z" fill="#484848"/>
</g>
<rect x="1" y="1" width="70" height="70" rx="35" stroke="#E8E8E8" stroke-width="2"/>
<defs>
<clipPath id="clip0_285_55055">
<rect width="72" height="72" rx="36" fill="white"/>
</clipPath>
</defs>
</svg>
