<svg xmlns="http://www.w3.org/2000/svg" width="24" height="24" viewBox="0 0 24 24" fill="none">
  <mask id="mask0_662_6323" style="mask-type:alpha" maskUnits="userSpaceOnUse" x="0" y="0" width="24" height="24">
    <rect width="24" height="24" fill="#D9D9D9"/>
  </mask>
  <g mask="url(#mask0_662_6323)">
    <path d="M15.7731 12.9731L14.6501 11.8501C14.8001 11.0219 14.5638 10.2773 13.9413 9.61631C13.319 8.95548 12.5552 8.70006 11.6501 8.85006L10.5271 7.72706C10.7527 7.62573 10.9842 7.54973 11.2213 7.49906C11.4585 7.4484 11.7181 7.42306 12.0001 7.42306C13.1347 7.42306 14.0979 7.8189 14.8896 8.61056C15.6812 9.40223 16.0771 10.3654 16.0771 11.5001C16.0771 11.7821 16.0517 12.0449 16.0011 12.2886C15.9504 12.5321 15.8744 12.7602 15.7731 12.9731ZM18.9538 16.0846L17.8501 15.0501C18.4834 14.5667 19.0459 14.0376 19.5376 13.4626C20.0292 12.8876 20.4501 12.2334 20.8001 11.5001C19.9667 9.81673 18.7709 8.47923 17.2126 7.48756C15.6542 6.4959 13.9167 6.00006 12.0001 6.00006C11.5167 6.00006 11.0417 6.0334 10.5751 6.10006C10.1084 6.16673 9.65007 6.26673 9.20007 6.40006L8.03482 5.23481C8.66682 4.98348 9.31233 4.79823 9.97132 4.67906C10.6303 4.55973 11.3066 4.50006 12.0001 4.50006C14.3436 4.50006 16.457 5.14623 18.3403 6.43856C20.2237 7.7309 21.5974 9.41806 22.4616 11.5001C22.0911 12.3936 21.6126 13.2276 21.0261 14.0021C20.4394 14.7764 19.7487 15.4706 18.9538 16.0846ZM19.7616 21.8693L15.7156 17.8538C15.2027 18.0436 14.6344 18.1988 14.0106 18.3193C13.3869 18.4398 12.7167 18.5001 12.0001 18.5001C9.65007 18.5001 7.53666 17.8539 5.65982 16.5616C3.78282 15.2692 2.40907 13.5821 1.53857 11.5001C1.90774 10.6167 2.38466 9.79273 2.96932 9.02806C3.55399 8.26323 4.19757 7.60006 4.90007 7.03856L2.13082 4.23856L3.18482 3.18481L20.8153 20.8153L19.7616 21.8693ZM5.95407 8.09231C5.42574 8.51281 4.91191 9.01831 4.41257 9.60881C3.91324 10.1991 3.50907 10.8296 3.20007 11.5001C4.03341 13.1834 5.22924 14.5209 6.78757 15.5126C8.34591 16.5042 10.0834 17.0001 12.0001 17.0001C12.4552 17.0001 12.9085 16.9616 13.3598 16.8846C13.811 16.8077 14.1937 16.7283 14.5078 16.6463L13.2423 15.3501C13.0718 15.4192 12.8744 15.4743 12.6501 15.5153C12.4257 15.5565 12.2091 15.5771 12.0001 15.5771C10.8654 15.5771 9.90224 15.1812 9.11058 14.3896C8.31891 13.5979 7.92307 12.6347 7.92307 11.5001C7.92307 11.2976 7.94366 11.0857 7.98483 10.8646C8.02583 10.6434 8.08091 10.4411 8.15007 10.2578L5.95407 8.09231Z" fill="#949494"/>
  </g>
</svg>