<svg width="80" height="80" viewBox="0 0 80 80" fill="none" xmlns="http://www.w3.org/2000/svg">
<path opacity="0.4" d="M33.8319 25.6654C34.8588 22.2996 37.9646 20 41.4837 20H68.1951C73.5696 20 77.4153 25.194 75.8468 30.3346L65.1681 65.3346C64.1412 68.7005 61.0354 71 57.5163 71H30.8049C25.4304 71 21.5847 65.806 23.1532 60.6654L33.8319 25.6654Z" fill="#00C2ED"/>
<path opacity="0.6" d="M14.8319 13.6654C15.8588 10.2996 18.9646 8 22.4837 8H49.1951C54.5696 8 58.4153 13.194 56.8468 18.3346L46.1681 53.3346C45.1412 56.7005 42.0354 59 38.5163 59H11.8049C6.43039 59 2.58473 53.806 4.15316 48.6654L14.8319 13.6654Z" fill="#00C2ED"/>
<path d="M24 28L36.8608 37.1863C37.4191 37.5851 37.4191 38.4149 36.8608 38.8137L32.5812 41.8705C31.9194 42.3433 31 41.8702 31 41.0568V24.9432C31 24.1298 31.9194 23.6567 32.5812 24.1295L36.8608 27.1863C37.4191 27.5851 37.4191 28.4149 36.8608 28.8137L24 38" stroke="white" stroke-width="3" stroke-linecap="round"/>
</svg>
