<svg width="80" height="80" viewBox="0 0 80 80" fill="none" xmlns="http://www.w3.org/2000/svg">
<path opacity="0.6" d="M31 15C31 12.7909 32.7909 11 35 11H62C64.2091 11 66 12.7909 66 15V56C66 58.2091 64.2091 60 62 60H35C32.7909 60 31 58.2091 31 56V15Z" fill="#FF85CB"/>
<path opacity="0.6" d="M37 19C37 16.7909 38.7909 15 41 15H68C70.2091 15 72 16.7909 72 19V60C72 62.2091 70.2091 64 68 64H41C38.7909 64 37 62.2091 37 60V19Z" fill="#FF85CB"/>
<path opacity="0.6" d="M43 23C43 20.7909 44.7909 19 47 19H74C76.2091 19 78 20.7909 78 23V64C78 66.2091 76.2091 68 74 68H47C44.7909 68 43 66.2091 43 64V23Z" fill="#FF85CB"/>
<path opacity="0.7" d="M2 40H23.6228C24.5084 40 24.957 38.9338 24.3376 38.3007L18.1739 32" stroke="#00C2ED" stroke-width="4" stroke-linecap="round"/>
</svg>