<svg width="80" height="80" viewBox="0 0 80 80" fill="none" xmlns="http://www.w3.org/2000/svg">
<path opacity="0.6" fill-rule="evenodd" clip-rule="evenodd" d="M59.4131 20.3669C61.394 14.0424 57.8728 7.3096 51.5483 5.32875L49.8025 4.78196C43.4781 2.80111 36.7453 6.32231 34.7644 12.6468L31.6443 22.6088C29.6634 28.9333 33.1846 35.6661 39.5091 37.6469L41.2549 38.1937C47.5794 40.1746 54.3121 36.6534 56.293 30.3289L59.4131 20.3669ZM52.352 20.0362C53.3553 16.8332 51.5719 13.4233 48.3688 12.4201C45.1657 11.4168 41.7559 13.2002 40.7526 16.4033L38.619 23.2156C37.6158 26.4187 39.3991 29.8286 42.6022 30.8318C45.8053 31.835 49.2152 30.0517 50.2184 26.8486L52.352 20.0362Z" fill="#00C2ED"/>
<path opacity="0.6" fill-rule="evenodd" clip-rule="evenodd" d="M48.0909 56.5182C50.0717 50.1938 46.5505 43.461 40.2261 41.4801L38.4803 40.9333C32.1558 38.9525 25.423 42.4737 23.4422 48.7981L20.322 58.7602C18.3412 65.0846 21.8624 71.8174 28.1868 73.7983L29.9326 74.3451C36.2571 76.3259 42.9899 72.8047 44.9707 66.4803L48.0909 56.5182ZM41.0299 56.1876C42.0331 52.9845 40.2497 49.5746 37.0467 48.5714C33.8436 47.5682 30.4337 49.3515 29.4305 52.5546L27.2968 59.367C26.2936 62.5701 28.0769 65.9799 31.28 66.9832C34.4831 67.9864 37.893 66.203 38.8962 63L41.0299 56.1876Z" fill="#00C2ED"/>
<rect opacity="0.6" x="40.6982" y="25.3882" width="6.88785" height="27.5514" rx="3.44392" transform="rotate(17.3908 40.6982 25.3882)" fill="#00C2ED"/>
</svg>
