<svg width="20" height="20" viewBox="0 0 20 20" fill="none" xmlns="http://www.w3.org/2000/svg">
<g id="ic_auto">
<path id="Vector" d="M15.7191 6.94564L16.3223 5.6095L17.6584 5.00633C17.725 4.97596 17.7816 4.92706 17.8212 4.86547C17.8608 4.80387 17.8819 4.73217 17.8819 4.65893C17.8819 4.58569 17.8608 4.514 17.8212 4.4524C17.7816 4.3908 17.725 4.3419 17.6584 4.31154L16.3223 3.70836L15.7191 2.36459C15.6887 2.29794 15.6398 2.24143 15.5782 2.20181C15.5166 2.16218 15.4449 2.14111 15.3717 2.14111C15.2984 2.14111 15.2267 2.16218 15.1652 2.20181C15.1036 2.24143 15.0547 2.29794 15.0243 2.36459L14.4211 3.70073L13.0773 4.3039C13.0107 4.33427 12.9542 4.38317 12.9146 4.44476C12.8749 4.50636 12.8539 4.57806 12.8539 4.6513C12.8539 4.72454 12.8749 4.79623 12.9146 4.85783C12.9542 4.91943 13.0107 4.96833 13.0773 4.99869L14.4135 5.60187L15.0167 6.94564C15.1541 7.24341 15.5816 7.24341 15.7191 6.94564ZM9.64155 8.0909L8.42757 5.41862C8.16035 4.82309 7.30522 4.82309 7.03799 5.41862L5.82401 8.0909L3.15173 9.30488C2.55619 9.57975 2.55619 10.4272 3.15173 10.6945L5.82401 11.9084L7.03799 14.5807C7.31285 15.1763 8.16035 15.1763 8.42757 14.5807L9.64155 11.9084L12.3138 10.6945C12.9094 10.4196 12.9094 9.57211 12.3138 9.30488L9.64155 8.0909ZM15.0167 13.0537L14.4135 14.3898L13.0773 14.993C13.0107 15.0234 12.9542 15.0723 12.9146 15.1339C12.8749 15.1955 12.8539 15.2672 12.8539 15.3404C12.8539 15.4137 12.8749 15.4854 12.9146 15.547C12.9542 15.6085 13.0107 15.6574 13.0773 15.6878L14.4135 16.291L15.0167 17.6348C15.047 17.7014 15.0959 17.7579 15.1575 17.7975C15.2191 17.8372 15.2908 17.8582 15.364 17.8582C15.4373 17.8582 15.509 17.8372 15.5706 17.7975C15.6322 17.7579 15.6811 17.7014 15.7114 17.6348L16.3146 16.2986L17.6584 15.6954C17.725 15.6651 17.7816 15.6162 17.8212 15.5546C17.8608 15.493 17.8819 15.4213 17.8819 15.3481C17.8819 15.2748 17.8608 15.2031 17.8212 15.1415C17.7816 15.0799 17.725 15.031 17.6584 15.0007L16.3223 14.3975L15.7191 13.0537C15.6878 12.987 15.6382 12.9305 15.576 12.891C15.5138 12.8514 15.4416 12.8304 15.3679 12.8304C15.2942 12.8304 15.222 12.8514 15.1598 12.891C15.0976 12.9305 15.0479 12.987 15.0167 13.0537Z" fill="white"/>
</g>
</svg>
