<svg width="24" height="24" viewBox="0 0 24 24" fill="none" xmlns="http://www.w3.org/2000/svg">
<g id="ic_restart_small_line">
<path id="Vector" d="M12.207 2.29279C12.3945 2.48031 12.4998 2.73462 12.4998 2.99979C12.4998 3.26495 12.3945 3.51926 12.207 3.70679L10.914 4.99979H12.5C17.152 4.99979 21 8.84779 21 13.4998C21 18.1518 17.152 21.9998 12.5 21.9998C7.848 21.9998 4 18.1518 4 13.4998C4 13.2346 4.10536 12.9802 4.29289 12.7927C4.48043 12.6051 4.73478 12.4998 5 12.4998C5.26522 12.4998 5.51957 12.6051 5.70711 12.7927C5.89464 12.9802 6 13.2346 6 13.4998C6 17.0478 8.952 19.9998 12.5 19.9998C16.048 19.9998 19 17.0478 19 13.4998C19 9.95179 16.048 6.99979 12.5 6.99979H10.914L12.207 8.29279C12.3892 8.48139 12.49 8.73399 12.4877 8.99619C12.4854 9.25838 12.3802 9.5092 12.1948 9.6946C12.0094 9.88001 11.7586 9.98518 11.4964 9.98746C11.2342 9.98974 10.9816 9.88894 10.793 9.70679L7.793 6.70679C7.60553 6.51926 7.50021 6.26495 7.50021 5.99979C7.50021 5.73462 7.60553 5.48031 7.793 5.29279L10.793 2.29279C10.9805 2.10532 11.2348 2 11.5 2C11.7652 2 12.0195 2.10532 12.207 2.29279Z" fill="#333333"/>
</g>
</svg>
