<svg width="16" height="16" viewBox="0 0 16 16" fill="none" xmlns="http://www.w3.org/2000/svg">
<rect width="16" height="16" rx="5" fill="white"/>
<mask id="mask0_1282_13773" style="mask-type:alpha" maskUnits="userSpaceOnUse" x="0" y="0" width="16" height="16">
<rect width="16" height="16" fill="#D9D9D9"/>
</mask>
<g mask="url(#mask0_1282_13773)">
<path d="M3.14174 13C2.82268 13 2.55263 12.8833 2.33158 12.65C2.11053 12.4167 2 12.1316 2 11.7948V4.20517C2 3.86839 2.11053 3.58333 2.33158 3.35C2.55263 3.11667 2.82268 3 3.14174 3H12.8583C13.1773 3 13.4474 3.11667 13.6684 3.35C13.8895 3.58333 14 3.86839 14 4.20517V11.7948C14 12.1316 13.8895 12.4167 13.6684 12.65C13.4474 12.8833 13.1773 13 12.8583 13H3.14174ZM8 8.37183L2.94737 4.9615V11.7948C2.94737 11.8547 2.96558 11.9039 3.002 11.9423C3.03842 11.9808 3.085 12 3.14174 12H12.8583C12.915 12 12.9616 11.9808 12.998 11.9423C13.0344 11.9039 13.0526 11.8547 13.0526 11.7948V4.9615L8 8.37183ZM8 7.33333L12.9555 4H3.04447L8 7.33333ZM2.94737 4.9615V4V11.7948C2.94737 11.8547 2.96558 11.9039 3.002 11.9423C3.03842 11.9808 3.085 12 3.14174 12H2.94737V4.9615Z" fill="#212121"/>
</g>
</svg>
