<svg width="48" height="48" viewBox="0 0 48 48" fill="none" xmlns="http://www.w3.org/2000/svg">
<path d="M17 31.0741V29.5112H18.8077V21.7354C18.8077 20.334 19.2228 19.0949 20.053 18.018C20.883 16.9412 21.9487 16.2525 23.25 15.9518V15.3026C23.25 14.9408 23.3714 14.6332 23.6143 14.3798C23.8571 14.1266 24.1519 14 24.4988 14C24.8458 14 25.141 14.1266 25.3845 14.3798C25.6282 14.6332 25.75 14.9408 25.75 15.3026V15.9518C27.0513 16.2525 28.117 16.9412 28.947 18.018C29.7772 19.0949 30.1923 20.334 30.1923 21.7354V29.5112H32V31.0741H17ZM24.4983 34C24.0008 34 23.5754 33.8155 23.2223 33.4467C22.8689 33.0778 22.6923 32.6343 22.6923 32.1162H26.3077C26.3077 32.636 26.1306 33.0799 25.7762 33.448C25.4219 33.816 24.9959 34 24.4983 34ZM20.3077 29.5112H28.6923V21.7354C28.6923 20.529 28.283 19.4994 27.4645 18.6464C26.6458 17.7933 25.6577 17.3667 24.5 17.3667C23.3423 17.3667 22.3542 17.7933 21.5355 18.6464C20.717 19.4994 20.3077 20.529 20.3077 21.7354V29.5112Z" fill="#212121"/>
</svg>
