<svg width="48" height="48" viewBox="0 0 48 48" fill="none" xmlns="http://www.w3.org/2000/svg">
<path d="M32.7741 34L25.4675 26.6932C24.8859 27.1735 24.217 27.5493 23.4608 27.8208C22.7046 28.0922 21.9224 28.2279 21.1141 28.2279C19.1257 28.2279 17.443 27.5395 16.0658 26.1627C14.6886 24.786 14 23.1036 14 21.1157C14 19.128 14.6884 17.4451 16.0652 16.0669C17.442 14.689 19.1244 14 21.1123 14C23.1001 14 24.783 14.6886 26.1612 16.0658C27.5391 17.4429 28.2281 19.1257 28.2281 21.114C28.2281 21.9448 28.0887 22.7382 27.8099 23.4944C27.5309 24.2505 27.1587 24.9082 26.6934 25.4674L34 32.7739L32.7741 34ZM21.1141 26.4832C22.613 26.4832 23.8826 25.963 24.9228 24.9227C25.9632 23.8825 26.4834 22.6129 26.4834 21.114C26.4834 19.615 25.9632 18.3455 24.9228 17.3053C23.8826 16.2649 22.613 15.7447 21.1141 15.7447C19.6151 15.7447 18.3455 16.2649 17.3053 17.3053C16.2649 18.3455 15.7447 19.615 15.7447 21.114C15.7447 22.6129 16.2649 23.8825 17.3053 24.9227C18.3455 25.963 19.6151 26.4832 21.1141 26.4832Z" fill="#212121"/>
</svg>
