<svg width="24" height="24" viewBox="0 0 24 24" fill="none" xmlns="http://www.w3.org/2000/svg">
<mask id="mask0_234_3994" style="mask-type:alpha" maskUnits="userSpaceOnUse" x="0" y="0" width="24" height="24">
<rect width="24" height="24" fill="#D9D9D9"/>
</mask>
<g mask="url(#mask0_234_3994)">
<path d="M12 8.94218C11.1358 8.94218 10.4006 8.63901 9.79427 8.03268C9.18793 7.42618 8.88477 6.69093 8.88477 5.82693C8.88477 4.96276 9.18793 4.22751 9.79427 3.62117C10.4006 3.01467 11.1358 2.71143 12 2.71143C12.8642 2.71143 13.5994 3.01467 14.2058 3.62117C14.8121 4.22751 15.1153 4.96276 15.1153 5.82693C15.1153 6.69093 14.8121 7.42618 14.2058 8.03268C13.5994 8.63901 12.8642 8.94218 12 8.94218ZM12 7.44218C12.4487 7.44218 12.8301 7.28517 13.1443 6.97117C13.4584 6.65701 13.6155 6.27559 13.6155 5.82693C13.6155 5.37809 13.4584 4.99668 13.1443 4.68268C12.8301 4.36851 12.4487 4.21143 12 4.21143C11.5513 4.21143 11.1699 4.36851 10.8558 4.68268C10.5416 4.99668 10.3845 5.37809 10.3845 5.82693C10.3845 6.27559 10.5416 6.65701 10.8558 6.97117C11.1699 7.28517 11.5513 7.44218 12 7.44218ZM12 21.1344L6.26927 15.4037C5.97443 15.1088 5.75327 14.7739 5.60577 14.3989C5.45843 14.0239 5.38477 13.6142 5.38477 13.1697C5.38477 12.2953 5.6851 11.5581 6.28577 10.9579C6.8866 10.3578 7.62468 10.0577 8.50002 10.0577C8.92852 10.0577 9.32377 10.1381 9.68577 10.2989C10.0478 10.4599 10.3794 10.691 10.6808 10.9922L12 12.3114L13.3193 10.9922C13.6141 10.6973 13.9448 10.4678 14.3115 10.3037C14.6782 10.1397 15.0758 10.0577 15.5043 10.0577C16.3758 10.0577 17.1122 10.3578 17.7135 10.9579C18.3147 11.5581 18.6153 12.2953 18.6153 13.1697C18.6153 13.6142 18.5416 14.0239 18.3943 14.3989C18.2468 14.7739 18.0256 15.1088 17.7308 15.4037L12 21.1344ZM12 18.9962L16.6463 14.3499C16.8091 14.1871 16.928 14.005 17.003 13.8037C17.078 13.6025 17.1155 13.3938 17.1155 13.1777C17.1155 12.7457 16.961 12.3677 16.652 12.0437C16.343 11.7197 15.9587 11.5577 15.499 11.5577C15.2868 11.5577 15.0951 11.5896 14.9238 11.6534C14.7523 11.7174 14.5853 11.8316 14.423 11.9959L12 14.4192L9.59627 12.0152C9.48543 11.9008 9.34235 11.796 9.16702 11.7007C8.99152 11.6053 8.7706 11.5577 8.50427 11.5577C8.04243 11.5577 7.65702 11.7188 7.34802 12.0412C7.03902 12.3637 6.88452 12.7398 6.88452 13.1697C6.88452 13.3847 6.9246 13.5893 7.00477 13.7837C7.08493 13.9778 7.20127 14.1563 7.35377 14.3192L12 18.9962Z" fill="#212121"/>
</g>
</svg>
