<svg width="18" height="18" viewBox="0 0 18 18" fill="none" xmlns="http://www.w3.org/2000/svg">
<path d="M9 13.6345C7.96417 13.6345 6.96675 13.8124 6.00775 14.1683C5.04875 14.5241 4.16475 15.0642 3.35575 15.7885V15.9423C3.38142 15.9616 3.40708 15.976 3.43275 15.9855C3.45825 15.9952 3.48708 16 3.51925 16H14.4615C14.4937 16 14.5209 15.9952 14.5433 15.9855C14.5658 15.976 14.5898 15.9616 14.6155 15.9423V15.7885C13.8193 15.0642 12.9449 14.5241 11.9923 14.1683C11.0398 13.8124 10.0423 13.6345 9 13.6345ZM2 14.9848C2.9 14.1014 3.94583 13.4056 5.1375 12.8973C6.32917 12.3889 7.61667 12.1348 9 12.1348C10.3833 12.1348 11.6708 12.3889 12.8625 12.8973C14.0542 13.4056 15.1 14.1014 16 14.9848V2.30777C16 2.23077 15.9679 2.16026 15.9038 2.09626C15.8398 2.0321 15.7692 2.00002 15.6923 2.00002H2.30775C2.23075 2.00002 2.16025 2.0321 2.09625 2.09626C2.03208 2.16026 2 2.23077 2 2.30777V14.9848ZM9 9.75002C8.0975 9.75002 7.33017 9.43402 6.698 8.80202C6.066 8.16985 5.75 7.40252 5.75 6.50002C5.75 5.59752 6.066 4.83018 6.698 4.19801C7.33017 3.56601 8.0975 3.25002 9 3.25002C9.9025 3.25002 10.6698 3.56601 11.302 4.19801C11.934 4.83018 12.25 5.59752 12.25 6.50002C12.25 7.40252 11.934 8.16985 11.302 8.80202C10.6698 9.43402 9.9025 9.75002 9 9.75002ZM9 8.25002C9.48083 8.25002 9.89267 8.07852 10.2355 7.73552C10.5785 7.39268 10.75 6.98085 10.75 6.50002C10.75 6.01918 10.5785 5.60735 10.2355 5.26452C9.89267 4.92152 9.48083 4.75002 9 4.75002C8.51917 4.75002 8.10733 4.92152 7.7645 5.26452C7.4215 5.60735 7.25 6.01918 7.25 6.50002C7.25 6.98085 7.4215 7.39268 7.7645 7.73552C8.10733 8.07852 8.51917 8.25002 9 8.25002ZM2.30775 17.5C1.80258 17.5 1.375 17.325 1.025 16.975C0.675 16.625 0.5 16.1974 0.5 15.6923V2.30777C0.5 1.8026 0.675 1.37502 1.025 1.02502C1.375 0.675015 1.80258 0.500015 2.30775 0.500015H3.69225L5.23075 0.5L12.8077 0.500015L14.3077 0.5L15.6923 0.500015C16.1974 0.500015 16.625 0.675015 16.975 1.02502C17.325 1.37502 17.5 1.8026 17.5 2.30777V15.6923C17.5 16.1974 17.325 16.625 16.975 16.975C16.625 17.325 16.1974 17.5 15.6923 17.5H2.30775Z" fill="#212121"/>
</svg>
