<svg xmlns="http://www.w3.org/2000/svg" width="20" height="20" viewBox="0 0 20 20" fill="none">
  <path fill-rule="evenodd" clip-rule="evenodd" d="M2.5 3.66699C2.5 2.56242 3.39543 1.66699 4.5 1.66699H15.5C16.6046 1.66699 17.5 2.56242 17.5 3.66699V16.3337C17.5 17.4382 16.6046 18.3337 15.5 18.3337H4.5C3.39543 18.3337 2.5 17.4382 2.5 16.3337V3.66699ZM10.001 14.2601C7.5901 14.2601 6.62598 13.2178 6.62598 12.1767C6.62598 11.4867 7.27398 10.9267 8.07273 10.9267H11.9292C12.728 10.9267 13.376 11.4867 13.376 12.1767C13.376 13.2145 12.4119 14.2601 10.001 14.2601ZM11.6885 8.14896C11.6885 8.59098 11.5107 9.01491 11.1942 9.32747C10.8778 9.64003 10.4485 9.81562 10.001 9.81562C9.55342 9.81562 9.1242 9.64003 8.80773 9.32747C8.49127 9.01491 8.31348 8.59098 8.31348 8.14896C8.31348 7.70693 8.49127 7.283 8.80773 6.97044C9.1242 6.65788 9.55342 6.48229 10.001 6.48229C10.4485 6.48229 10.8778 6.65788 11.1942 6.97044C11.5107 7.283 11.6885 7.70693 11.6885 8.14896ZM13.3749 3.81464C13.6234 3.81464 13.8249 4.01362 13.8249 4.25908V4.92623H14.5001C14.7487 4.92623 14.9501 5.12521 14.9501 5.37067C14.9501 5.61613 14.7487 5.81512 14.5001 5.81512H13.8249V6.4813C13.8249 6.72676 13.6234 6.92575 13.3749 6.92575C13.1263 6.92575 12.9249 6.72676 12.9249 6.4813V5.81512H12.2501C12.0016 5.81512 11.8001 5.61613 11.8001 5.37067C11.8001 5.12521 12.0016 4.92623 12.2501 4.92623H12.9249V4.25908C12.9249 4.01362 13.1263 3.81464 13.3749 3.81464Z" fill="#212121"/>
</svg>