<svg xmlns="http://www.w3.org/2000/svg" width="24" height="24" viewBox="0 0 24 24" fill="none">
  <path fill-rule="evenodd" clip-rule="evenodd" d="M3 4C3 2.89543 3.89543 2 5 2H19C20.1046 2 21 2.89543 21 4V20C21 21.1046 20.1046 22 19 22H5C3.89543 22 3 21.1046 3 20V4ZM12.0012 17.1117C9.10812 17.1117 7.95117 15.861 7.95117 14.6117C7.95117 13.7837 8.72877 13.1117 9.68727 13.1117H14.3151C15.2736 13.1117 16.0512 13.7837 16.0512 14.6117C16.0512 15.857 14.8942 17.1117 12.0012 17.1117ZM14.0262 9.77836C14.0262 10.3088 13.8128 10.8175 13.4331 11.1926C13.0533 11.5676 12.5382 11.7784 12.0012 11.7784C11.4641 11.7784 10.949 11.5676 10.5693 11.1926C10.1895 10.8175 9.97617 10.3088 9.97617 9.77836C9.97617 9.24792 10.1895 8.73922 10.5693 8.36414C10.949 7.98907 11.4641 7.77836 12.0012 7.77836C12.5382 7.77836 13.0533 7.98907 13.4331 8.36414C13.8128 8.73922 14.0262 9.24792 14.0262 9.77836ZM16.0498 4.57716C16.3481 4.57716 16.5898 4.81594 16.5898 5.11049V5.91107H17.4002C17.6984 5.91107 17.9402 6.14985 17.9402 6.44441C17.9402 6.73896 17.6984 6.97774 17.4002 6.97774H16.5898V7.77716C16.5898 8.07171 16.3481 8.31049 16.0498 8.31049C15.7516 8.31049 15.5098 8.07171 15.5098 7.77716V6.97774H14.7002C14.4019 6.97774 14.1602 6.73896 14.1602 6.44441C14.1602 6.14985 14.4019 5.91107 14.7002 5.91107H15.5098V5.11049C15.5098 4.81594 15.7516 4.57716 16.0498 4.57716Z" fill="#616161"/>
</svg>