<svg xmlns="http://www.w3.org/2000/svg" width="24" height="24" viewBox="0 0 24 24" fill="none">
  <mask id="mask0_234_5460" style="mask-type:alpha" maskUnits="userSpaceOnUse" x="0" y="0" width="24" height="24">
    <rect width="24" height="24" fill="#D9D9D9"/>
  </mask>
  <g mask="url(#mask0_234_5460)">
    <path d="M12 16.6345C10.9642 16.6345 9.96675 16.8124 9.00775 17.1683C8.04875 17.5241 7.16475 18.0642 6.35575 18.7885V18.9423C6.38142 18.9616 6.40708 18.976 6.43275 18.9855C6.45825 18.9952 6.48708 19 6.51925 19H17.4615C17.4937 19 17.5209 18.9952 17.5433 18.9855C17.5658 18.976 17.5898 18.9616 17.6155 18.9423V18.7885C16.8193 18.0642 15.9449 17.5241 14.9923 17.1683C14.0398 16.8124 13.0423 16.6345 12 16.6345ZM5 17.9848C5.9 17.1014 6.94583 16.4056 8.1375 15.8973C9.32917 15.3889 10.6167 15.1348 12 15.1348C13.3833 15.1348 14.6708 15.3889 15.8625 15.8973C17.0542 16.4056 18.1 17.1014 19 17.9848V5.30777C19 5.23077 18.9679 5.16026 18.9038 5.09626C18.8398 5.0321 18.7692 5.00002 18.6923 5.00002H5.30775C5.23075 5.00002 5.16025 5.0321 5.09625 5.09626C5.03208 5.16026 5 5.23077 5 5.30777V17.9848ZM12 12.75C11.0975 12.75 10.3302 12.434 9.698 11.802C9.066 11.1698 8.75 10.4025 8.75 9.50002C8.75 8.59752 9.066 7.83018 9.698 7.19801C10.3302 6.56601 11.0975 6.25002 12 6.25002C12.9025 6.25002 13.6698 6.56601 14.302 7.19801C14.934 7.83018 15.25 8.59752 15.25 9.50002C15.25 10.4025 14.934 11.1698 14.302 11.802C13.6698 12.434 12.9025 12.75 12 12.75ZM12 11.25C12.4808 11.25 12.8927 11.0785 13.2355 10.7355C13.5785 10.3927 13.75 9.98085 13.75 9.50002C13.75 9.01918 13.5785 8.60735 13.2355 8.26452C12.8927 7.92152 12.4808 7.75002 12 7.75002C11.5192 7.75002 11.1073 7.92152 10.7645 8.26452C10.4215 8.60735 10.25 9.01918 10.25 9.50002C10.25 9.98085 10.4215 10.3927 10.7645 10.7355C11.1073 11.0785 11.5192 11.25 12 11.25ZM5.30775 20.5C4.80258 20.5 4.375 20.325 4.025 19.975C3.675 19.625 3.5 19.1974 3.5 18.6923V5.30777C3.5 4.8026 3.675 4.37502 4.025 4.02502C4.375 3.67502 4.80258 3.50002 5.30775 3.50002H6.69225L8.23075 3.5L15.8077 3.50002L17.3077 3.5L18.6923 3.50002C19.1974 3.50002 19.625 3.67502 19.975 4.02502C20.325 4.37502 20.5 4.8026 20.5 5.30777V18.6923C20.5 19.1974 20.325 19.625 19.975 19.975C19.625 20.325 19.1974 20.5 18.6923 20.5H5.30775Z" fill="#212121"/>
  </g>
</svg>