<svg width="16" height="16" viewBox="0 0 16 16" fill="none" xmlns="http://www.w3.org/2000/svg">
<rect width="16" height="16" fill="#C8C8C8"/>
<path d="M-97 -322C-97 -323.105 -96.1046 -324 -95 -324H1308C1309.1 -324 1310 -323.105 1310 -322V1387C1310 1388.1 1309.1 1389 1308 1389H-95C-96.1046 1389 -97 1388.1 -97 1387V-322Z" fill="white" fill-opacity="0.2"/>
<path d="M-95 -320H1308V-328H-95V-320ZM1306 -322V1387H1314V-322H1306ZM1308 1385H-95V1393H1308V1385ZM-93 1387V-322H-101V1387H-93ZM-95 1385C-93.8954 1385 -93 1385.9 -93 1387H-101C-101 1390.31 -98.3138 1393 -95 1393V1385ZM1306 1387C1306 1385.9 1306.9 1385 1308 1385V1393C1311.31 1393 1314 1390.31 1314 1387H1306ZM1308 -320C1306.9 -320 1306 -320.895 1306 -322H1314C1314 -325.314 1311.31 -328 1308 -328V-320ZM-95 -328C-98.3137 -328 -101 -325.314 -101 -322H-93C-93 -320.895 -93.8955 -320 -95 -320V-328Z" fill="#9747FF"/>
<mask id="mask0_245_8238" style="mask-type:alpha" maskUnits="userSpaceOnUse" x="-2" y="-2" width="20" height="20">
<rect x="-2" y="-2" width="20" height="20" fill="#D9D9D9"/>
</mask>
<g mask="url(#mask0_245_8238)">
<path d="M6.10427 12.149L2.36719 8.43271L3.13302 7.64583L6.10427 10.6171L12.8672 3.875L13.633 4.64104L6.10427 12.149Z" fill="#212121"/>
</g>
</svg>
