<svg xmlns="http://www.w3.org/2000/svg" width="12" height="12" viewBox="0 0 12 12" fill="none">
  <path fill-rule="evenodd" clip-rule="evenodd" d="M6 12C9.31371 12 12 9.31371 12 6C12 2.68629 9.31371 0 6 0C2.68629 0 0 2.68629 0 6C0 9.31371 2.68629 12 6 12ZM9.53033 2.46967C9.23744 2.17678 8.76256 2.17678 8.46967 2.46967L6 4.93934L3.53033 2.46967C3.23744 2.17678 2.76256 2.17678 2.46967 2.46967C2.17678 2.76256 2.17678 3.23744 2.46967 3.53033L4.93934 6L2.46967 8.46967C2.17678 8.76256 2.17678 9.23744 2.46967 9.53033C2.76256 9.82322 3.23744 9.82322 3.53033 9.53033L6 7.06066L8.46967 9.53033C8.76256 9.82322 9.23744 9.82322 9.53033 9.53033C9.82322 9.23744 9.82322 8.76256 9.53033 8.46967L7.06066 6L9.53033 3.53033C9.82322 3.23744 9.82322 2.76256 9.53033 2.46967Z" fill="#B1B1B1"/>
</svg><svg xmlns="http://www.w3.org/2000/svg" width="12" height="12" viewBox="0 0 12 12" fill="none">
  <path fill-rule="evenodd" clip-rule="evenodd" d="M6 12C9.31371 12 12 9.31371 12 6C12 2.68629 9.31371 0 6 0C2.68629 0 0 2.68629 0 6C0 9.31371 2.68629 12 6 12ZM9.53033 2.46967C9.23744 2.17678 8.76256 2.17678 8.46967 2.46967L6 4.93934L3.53033 2.46967C3.23744 2.17678 2.76256 2.17678 2.46967 2.46967C2.17678 2.76256 2.17678 3.23744 2.46967 3.53033L4.93934 6L2.46967 8.46967C2.17678 8.76256 2.17678 9.23744 2.46967 9.53033C2.76256 9.82322 3.23744 9.82322 3.53033 9.53033L6 7.06066L8.46967 9.53033C8.76256 9.82322 9.23744 9.82322 9.53033 9.53033C9.82322 9.23744 9.82322 8.76256 9.53033 8.46967L7.06066 6L9.53033 3.53033C9.82322 3.23744 9.82322 2.76256 9.53033 2.46967Z" fill="#B1B1B1"/>
</svg>