<svg width="20" height="20" viewBox="0 0 20 20" fill="none" xmlns="http://www.w3.org/2000/svg">
<path d="M15.7715 2.61431C15.5372 2.37986 15.2589 2.19389 14.9527 2.06703C14.6464 1.94018 14.3182 1.87492 13.9867 1.875C13.6553 1.87508 13.327 1.94049 13.0209 2.06748C12.7147 2.19448 12.4365 2.38058 12.2023 2.61515L4.27982 10.5485C3.80776 11.0216 3.54255 11.6626 3.54232 12.331V15.0001C3.54232 15.3451 3.82232 15.6251 4.16732 15.6251H6.85315C7.52232 15.6251 8.16398 15.3585 8.63648 14.886L16.5532 6.96431C17.0254 6.49096 17.2906 5.84962 17.2906 5.18098C17.2906 4.51234 17.0254 3.871 16.5532 3.39765L15.7715 2.61431ZM3.33398 16.8751C3.16822 16.8751 3.00925 16.941 2.89204 17.0582C2.77483 17.1754 2.70898 17.3344 2.70898 17.5001C2.70898 17.6659 2.77483 17.8249 2.89204 17.9421C3.00925 18.0593 3.16822 18.1251 3.33398 18.1251H16.6673C16.8331 18.1251 16.992 18.0593 17.1093 17.9421C17.2265 17.8249 17.2923 17.6659 17.2923 17.5001C17.2923 17.3344 17.2265 17.1754 17.1093 17.0582C16.992 16.941 16.8331 16.8751 16.6673 16.8751H3.33398Z" fill="#CACACA"/>
</svg>
