<svg xmlns="http://www.w3.org/2000/svg" width="19" height="16" viewBox="0 0 19 16" fill="none">
  <path d="M0.761907 11.4286C0.546034 11.4286 0.365209 11.3371 0.219431 11.1543C0.0736535 10.9714 0.000510564 10.7454 2.62725e-06 10.4762C-0.000505309 10.207 0.0726376 9.98094 0.219431 9.79809C0.366225 9.61523 0.54705 9.5238 0.761907 9.5238H8.38095C8.59682 9.5238 8.7779 9.61523 8.92419 9.79809C9.07048 9.98094 9.14336 10.207 9.14286 10.4762C9.14235 10.7454 9.06921 10.9717 8.92343 11.1552C8.77765 11.3387 8.59682 11.4298 8.38095 11.4286H0.761907ZM0.761907 6.66666C0.546034 6.66666 0.365209 6.57523 0.219431 6.39237C0.0736535 6.20952 0.000510564 5.98349 2.62725e-06 5.71428C-0.000505309 5.44507 0.0726376 5.21904 0.219431 5.03619C0.366225 4.85333 0.54705 4.7619 0.761907 4.7619H12.9524C13.1683 4.7619 13.3493 4.85333 13.4956 5.03619C13.6419 5.21904 13.7148 5.44507 13.7143 5.71428C13.7138 5.98349 13.6406 6.20984 13.4949 6.39333C13.3491 6.57682 13.1683 6.66793 12.9524 6.66666H0.761907ZM0.761907 1.90476C0.546034 1.90476 0.365209 1.81333 0.219431 1.63047C0.0736535 1.44762 0.000510564 1.22159 2.62725e-06 0.95238C-0.000505309 0.683174 0.0726376 0.457142 0.219431 0.274286C0.366225 0.0914286 0.54705 0 0.761907 0H12.9524C13.1683 0 13.3493 0.0914286 13.4956 0.274286C13.6419 0.457142 13.7148 0.683174 13.7143 0.95238C13.7138 1.22159 13.6406 1.44793 13.4949 1.63143C13.3491 1.81492 13.1683 1.90603 12.9524 1.90476H0.761907Z" fill="#B1B1B1"/>
  <path d="M17.4012 8.43014C17.2648 8.29373 17.1029 8.18553 16.9247 8.11173C16.7465 8.03792 16.5555 7.99996 16.3627 8C16.1698 8.00005 15.9788 8.0381 15.8006 8.11199C15.6225 8.18588 15.4606 8.29416 15.3243 8.43063L10.7143 13.0463C10.4396 13.3216 10.2853 13.6946 10.2852 14.0834V15.6364C10.2852 15.8371 10.4481 16 10.6488 16H12.2117C12.6011 16 12.9745 15.8449 13.2494 15.5699L17.856 10.961C18.1308 10.6856 18.2852 10.3125 18.2852 9.92346C18.2852 9.53444 18.1308 9.1613 17.856 8.88589L17.4012 8.43014Z" fill="#B1B1B1"/>
</svg>