<svg xmlns="http://www.w3.org/2000/svg" width="18" height="16" viewBox="0 0 18 16" fill="none">
  <path d="M0.5 10V8.5H7.5V10H0.5ZM0.5 6V4.5H11.5V6H0.5ZM0.5 2V0.5H11.5V2H0.5ZM9.1155 15.5V12.8577L14.5443 7.45375C14.6686 7.32942 14.8028 7.24192 14.947 7.19125C15.0912 7.14075 15.2353 7.1155 15.3795 7.1155C15.5367 7.1155 15.6887 7.14492 15.8357 7.20375C15.9827 7.26275 16.1163 7.35125 16.2365 7.46925L17.1615 8.40375C17.2692 8.52825 17.3525 8.66292 17.4115 8.80775C17.4705 8.95258 17.5 9.09742 17.5 9.24225C17.5 9.38708 17.4731 9.5345 17.4193 9.6845C17.3654 9.8345 17.2795 9.97167 17.1615 10.096L11.7578 15.5H9.1155ZM10.3077 14.3077H11.2578L14.5038 11.046L14.0443 10.571L13.5788 10.102L10.3077 13.3577V14.3077ZM14.0443 10.571L13.5788 10.102L14.5038 11.046L14.0443 10.571Z" fill="#212121"/>
</svg>