<svg width="20" height="20" viewBox="0 0 20 20" fill="none" xmlns="http://www.w3.org/2000/svg">
<path d="M3.16231 16.6668C2.73577 16.6668 2.3799 16.5202 2.09472 16.2268C1.80953 15.9335 1.66663 15.5671 1.66602 15.1278V4.87254C1.66602 4.43381 1.80892 4.06778 2.09472 3.77445C2.38052 3.48111 2.73608 3.33413 3.16139 3.3335H6.92845C7.46865 3.3335 7.98588 3.55202 8.36244 3.93934L9.33077 4.93534C9.51905 5.129 9.77766 5.23826 10.0478 5.23826H16.8373C17.2632 5.23826 17.6191 5.38524 17.9049 5.67921C18.1907 5.97318 18.3333 6.33921 18.3327 6.77731V15.1287C18.3327 15.5668 18.1901 15.9329 17.9049 16.2268C17.6197 16.5208 17.2639 16.6675 16.8373 16.6668H3.16231ZM11.2882 11.4287L9.83533 12.9239C9.65808 13.1063 9.65822 13.3967 9.83565 13.5789C10.0202 13.7685 10.3247 13.7683 10.509 13.5786L12.7227 11.301C12.9113 11.107 12.9113 10.7981 12.7227 10.6041L10.5095 8.32688C10.3249 8.137 10.02 8.13698 9.83546 8.32683C9.65812 8.50924 9.65812 8.79965 9.83546 8.98207L11.2882 10.4764H7.41258C7.14958 10.4764 6.93639 10.6895 6.93639 10.9525C6.93639 11.2155 7.14958 11.4287 7.41258 11.4287H11.2882Z" fill="#212121"/>
</svg>
