<svg width="48" height="48" viewBox="0 0 48 48" fill="none" xmlns="http://www.w3.org/2000/svg">
<path fill-rule="evenodd" clip-rule="evenodd" d="M14.52 19.823C14 20.77 14 21.915 14 24.203V25.725C14 29.625 14 31.576 15.172 32.788C16.344 34 18.229 34 22 34H26C29.771 34 31.657 34 32.828 32.788C33.999 31.576 34 29.626 34 25.725V24.204C34 21.915 34 20.771 33.48 19.823C32.962 18.874 32.013 18.286 30.116 17.108L28.116 15.867C26.111 14.622 25.108 14 24 14C22.892 14 21.89 14.622 19.884 15.867L17.884 17.108C15.987 18.286 15.039 18.874 14.52 19.823ZM23.25 30C23.25 30.1989 23.329 30.3897 23.4697 30.5303C23.6103 30.671 23.8011 30.75 24 30.75C24.1989 30.75 24.3897 30.671 24.5303 30.5303C24.671 30.3897 24.75 30.1989 24.75 30V27C24.75 26.8011 24.671 26.6103 24.5303 26.4697C24.3897 26.329 24.1989 26.25 24 26.25C23.8011 26.25 23.6103 26.329 23.4697 26.4697C23.329 26.6103 23.25 26.8011 23.25 27V30Z" fill="#B1B1B1"/>
</svg>
