<svg xmlns="http://www.w3.org/2000/svg" width="20" height="20" viewBox="0 0 20 20" fill="none">
  <path fill-rule="evenodd" clip-rule="evenodd" d="M2.93088 13.1042C3.15671 13.0884 3.44588 13.0875 3.86088 13.0875H16.1409C16.5559 13.0875 16.845 13.0884 17.0717 13.1042C17.2934 13.1192 17.4234 13.1475 17.5217 13.1892C17.8442 13.3234 18.1009 13.5809 18.2342 13.9059C18.275 14.005 18.3034 14.135 18.3184 14.3584C18.3342 14.5859 18.3342 14.8767 18.3342 15.2942C18.3342 15.7109 18.3342 16.0025 18.3184 16.23C18.3034 16.4534 18.275 16.5834 18.2342 16.6834C18.1009 17.0075 17.8442 17.265 17.5217 17.4C17.4234 17.4409 17.2934 17.4692 17.0717 17.4842C16.845 17.5 16.5559 17.5 16.1409 17.5H3.86088C3.44588 17.5 3.15671 17.5 2.93088 17.4842C2.70838 17.4692 2.57838 17.44 2.48005 17.3992C2.31994 17.3325 2.17457 17.2349 2.0523 17.1119C1.93003 16.9889 1.83326 16.843 1.76755 16.6825C1.72671 16.5834 1.69838 16.4534 1.68338 16.23C1.66837 15.9183 1.66309 15.6062 1.66755 15.2942C1.66755 14.8775 1.66755 14.5859 1.68338 14.3584C1.69838 14.135 1.72671 14.005 1.76755 13.905C1.90088 13.5809 2.15755 13.3234 2.48005 13.1884C2.57838 13.1475 2.70921 13.1192 2.93088 13.1042ZM3.86005 16.1767C4.34338 16.1767 4.73671 15.7817 4.73671 15.2934C4.73671 14.8067 4.34421 14.4117 3.86005 14.4117C3.37588 14.4117 2.98255 14.8067 2.98255 15.2942C2.98255 15.7817 3.37505 16.1767 3.86005 16.1767ZM3.86088 6.91169C3.44588 6.91169 3.15671 6.91169 2.93088 6.89585C2.70838 6.88085 2.57838 6.85252 2.48005 6.81085C2.31994 6.74421 2.17457 6.64659 2.0523 6.5236C1.93003 6.40061 1.83326 6.25468 1.76755 6.09419C1.72671 5.99502 1.69838 5.86502 1.68338 5.64169C1.66837 5.32998 1.66309 5.01789 1.66755 4.70585C1.66755 4.28919 1.66755 3.99752 1.68338 3.77002C1.69838 3.54669 1.72671 3.41669 1.76755 3.31669C1.90088 2.99252 2.15755 2.73502 2.48005 2.60002C2.57838 2.55919 2.70838 2.53085 2.93005 2.51585C3.24036 2.50093 3.55107 2.49565 3.86171 2.50002H16.1417C16.5567 2.50002 16.8459 2.50002 17.0725 2.51585C17.2942 2.53085 17.4242 2.55919 17.5225 2.60085C17.845 2.73502 18.1017 2.99252 18.235 3.31752C18.2759 3.41669 18.3042 3.54669 18.3192 3.77002C18.335 3.99835 18.335 4.28835 18.335 4.70585C18.335 5.12252 18.335 5.41419 18.3192 5.64169C18.3042 5.86502 18.2759 5.99502 18.235 6.09502C18.1017 6.41919 17.845 6.67669 17.5225 6.81169C17.4242 6.85252 17.2942 6.88085 17.0725 6.89585C16.7625 6.91104 16.4521 6.9166 16.1417 6.91252L3.86088 6.91169ZM3.86088 7.79419C3.44588 7.79419 3.15671 7.79419 2.93088 7.81002C2.70838 7.82502 2.57838 7.85335 2.48005 7.89502C2.31994 7.96167 2.17457 8.05929 2.0523 8.18227C1.93003 8.30526 1.83326 8.45119 1.76755 8.61169C1.72671 8.71085 1.69838 8.84085 1.68338 9.06419C1.66755 9.29169 1.66755 9.58335 1.66755 10C1.66755 10.4167 1.66755 10.7084 1.68338 10.9359C1.69838 11.1592 1.72671 11.2892 1.76755 11.3892C1.90088 11.7134 2.15755 11.9709 2.48005 12.1059C2.57838 12.1467 2.70838 12.175 2.93005 12.19C3.15671 12.2059 3.44588 12.2067 3.86088 12.2067H16.1409C16.5559 12.2067 16.845 12.2059 17.0717 12.19C17.2934 12.175 17.4234 12.1467 17.5217 12.105C17.6818 12.0384 17.8272 11.9408 17.9495 11.8178C18.0717 11.6948 18.1685 11.5488 18.2342 11.3884C18.275 11.2892 18.3034 11.1592 18.3184 10.9359C18.3342 10.7084 18.3342 10.4167 18.3342 10C18.3342 9.58335 18.3342 9.29169 18.3184 9.06419C18.3034 8.84085 18.275 8.71085 18.2342 8.61085C18.1685 8.45036 18.0717 8.30443 17.9495 8.18144C17.8272 8.05845 17.6818 7.96083 17.5217 7.89419C17.4234 7.85335 17.2934 7.82502 17.0717 7.81002C16.7617 7.79483 16.4513 7.78928 16.1409 7.79335L3.86088 7.79419ZM4.73755 10C4.73755 10.4875 4.34505 10.8825 3.86088 10.8825C3.74532 10.8822 3.63095 10.8591 3.52431 10.8146C3.41767 10.7701 3.32084 10.705 3.23936 10.623C3.15787 10.5411 3.09333 10.4439 3.04941 10.337C3.00549 10.2301 2.98305 10.1156 2.98338 10C2.98338 9.51252 3.37588 9.11752 3.86088 9.11752C4.34421 9.11752 4.73755 9.51252 4.73755 10ZM3.86088 5.58835C4.34421 5.58835 4.73755 5.19335 4.73755 4.70585C4.73755 4.21835 4.34505 3.82335 3.86088 3.82335C3.37671 3.82335 2.98338 4.21835 2.98338 4.70669C2.98338 5.19335 3.37588 5.58835 3.86088 5.58835Z" fill="#B1B1B1"/>
</svg>