<svg xmlns="http://www.w3.org/2000/svg" width="20" height="20" viewBox="0 0 20 20" fill="none">
  <path fill-rule="evenodd" clip-rule="evenodd" d="M2.9299 13.1037C3.15574 13.0879 3.4449 13.087 3.8599 13.087H16.1399C16.5549 13.087 16.8441 13.0879 17.0707 13.1037C17.2924 13.1187 17.4224 13.147 17.5207 13.1887C17.8432 13.3229 18.0999 13.5804 18.2332 13.9054C18.2741 14.0045 18.3024 14.1345 18.3174 14.3579C18.3332 14.5854 18.3332 14.8762 18.3332 15.2937C18.3332 15.7104 18.3332 16.002 18.3174 16.2295C18.3024 16.4529 18.2741 16.5829 18.2332 16.6829C18.0999 17.007 17.8432 17.2645 17.5207 17.3995C17.4224 17.4404 17.2924 17.4687 17.0707 17.4837C16.8441 17.4995 16.5549 17.4995 16.1399 17.4995H3.8599C3.4449 17.4995 3.15574 17.4995 2.9299 17.4837C2.7074 17.4687 2.5774 17.4395 2.47907 17.3987C2.31896 17.3321 2.1736 17.2344 2.05132 17.1114C1.92905 16.9885 1.83228 16.8425 1.76657 16.682C1.72574 16.5829 1.6974 16.4529 1.6824 16.2295C1.66739 15.9178 1.66211 15.6057 1.66657 15.2937C1.66657 14.877 1.66657 14.5854 1.6824 14.3579C1.6974 14.1345 1.72574 14.0045 1.76657 13.9045C1.8999 13.5804 2.15657 13.3229 2.47907 13.1879C2.5774 13.147 2.70824 13.1187 2.9299 13.1037ZM3.85907 16.1762C4.3424 16.1762 4.73574 15.7812 4.73574 15.2929C4.73574 14.8062 4.34324 14.4112 3.85907 14.4112C3.3749 14.4112 2.98157 14.8062 2.98157 15.2937C2.98157 15.7812 3.37407 16.1762 3.85907 16.1762ZM3.8599 6.9112C3.4449 6.9112 3.15574 6.9112 2.9299 6.89537C2.7074 6.88036 2.5774 6.85203 2.47907 6.81037C2.31896 6.74372 2.1736 6.6461 2.05132 6.52311C1.92905 6.40012 1.83228 6.25419 1.76657 6.0937C1.72574 5.99453 1.6974 5.86453 1.6824 5.6412C1.66739 5.32949 1.66211 5.0174 1.66657 4.70537C1.66657 4.2887 1.66657 3.99703 1.6824 3.76953C1.6974 3.5462 1.72574 3.4162 1.76657 3.3162C1.8999 2.99203 2.15657 2.73453 2.47907 2.59953C2.5774 2.5587 2.7074 2.53037 2.92907 2.51537C3.23939 2.50044 3.55009 2.49516 3.86074 2.49953H16.1407C16.5557 2.49953 16.8449 2.49953 17.0716 2.51537C17.2932 2.53037 17.4232 2.5587 17.5216 2.60037C17.8441 2.73453 18.1007 2.99203 18.2341 3.31703C18.2749 3.4162 18.3032 3.5462 18.3182 3.76953C18.3341 3.99787 18.3341 4.28787 18.3341 4.70537C18.3341 5.12203 18.3341 5.4137 18.3182 5.6412C18.3032 5.86453 18.2749 5.99453 18.2341 6.09453C18.1007 6.4187 17.8441 6.6762 17.5216 6.8112C17.4232 6.85203 17.2932 6.88036 17.0716 6.89537C16.7615 6.91055 16.4511 6.91611 16.1407 6.91203L3.8599 6.9112ZM3.8599 7.7937C3.4449 7.7937 3.15574 7.7937 2.9299 7.80953C2.7074 7.82453 2.5774 7.85287 2.47907 7.89453C2.31896 7.96118 2.1736 8.0588 2.05132 8.18179C1.92905 8.30477 1.83228 8.4507 1.76657 8.6112C1.72574 8.71037 1.6974 8.84037 1.6824 9.0637C1.66657 9.2912 1.66657 9.58287 1.66657 9.99953C1.66657 10.4162 1.66657 10.7079 1.6824 10.9354C1.6974 11.1587 1.72574 11.2887 1.76657 11.3887C1.8999 11.7129 2.15657 11.9704 2.47907 12.1054C2.5774 12.1462 2.7074 12.1745 2.92907 12.1895C3.15574 12.2054 3.4449 12.2062 3.8599 12.2062H16.1399C16.5549 12.2062 16.8441 12.2054 17.0707 12.1895C17.2924 12.1745 17.4224 12.1462 17.5207 12.1045C17.6808 12.0379 17.8262 11.9403 17.9485 11.8173C18.0708 11.6943 18.1675 11.5484 18.2332 11.3879C18.2741 11.2887 18.3024 11.1587 18.3174 10.9354C18.3332 10.7079 18.3332 10.4162 18.3332 9.99953C18.3332 9.58287 18.3332 9.2912 18.3174 9.0637C18.3024 8.84037 18.2741 8.71037 18.2332 8.61037C18.1675 8.44987 18.0708 8.30394 17.9485 8.18095C17.8262 8.05797 17.6808 7.96035 17.5207 7.8937C17.4224 7.85287 17.2924 7.82453 17.0707 7.80953C16.7607 7.79435 16.4503 7.78879 16.1399 7.79287L3.8599 7.7937ZM4.73657 9.99953C4.73657 10.487 4.34407 10.882 3.8599 10.882C3.74434 10.8817 3.62997 10.8586 3.52333 10.8141C3.41669 10.7696 3.31986 10.7045 3.23838 10.6225C3.1569 10.5406 3.09235 10.4434 3.04843 10.3365C3.00451 10.2296 2.98207 10.1151 2.9824 9.99953C2.9824 9.51203 3.3749 9.11703 3.8599 9.11703C4.34324 9.11703 4.73657 9.51203 4.73657 9.99953ZM3.8599 5.58787C4.34324 5.58787 4.73657 5.19287 4.73657 4.70537C4.73657 4.21787 4.34407 3.82287 3.8599 3.82287C3.37574 3.82287 2.9824 4.21787 2.9824 4.7062C2.9824 5.19287 3.3749 5.58787 3.8599 5.58787Z" fill="#B1B1B1"/>
</svg>