<svg width="49" height="48" viewBox="0 0 49 48" fill="none" xmlns="http://www.w3.org/2000/svg">
<mask id="mask0_1275_6300" style="mask-type:alpha" maskUnits="userSpaceOnUse" x="12" y="12" width="25" height="24">
<rect x="12.75" y="12" width="24" height="24" fill="#D9D9D9"/>
</mask>
<g mask="url(#mask0_1275_6300)">
<path d="M27 27.75H28.5V25.75H30.5V24.25H28.5V22.25H27V24.25H25V25.75H27V27.75ZM17.0577 31.5C16.5526 31.5 16.125 31.325 15.775 30.975C15.425 30.625 15.25 30.1974 15.25 29.6923V18.3077C15.25 17.8026 15.425 17.375 15.775 17.025C16.125 16.675 16.5526 16.5 17.0577 16.5H22.548L24.548 18.5H32.4423C32.9474 18.5 33.375 18.675 33.725 19.025C34.075 19.375 34.25 19.8026 34.25 20.3077V29.6923C34.25 30.1974 34.075 30.625 33.725 30.975C33.375 31.325 32.9474 31.5 32.4423 31.5H17.0577ZM17.0577 30H32.4423C32.5321 30 32.6058 29.9712 32.6635 29.9135C32.7212 29.8558 32.75 29.7821 32.75 29.6923V20.3077C32.75 20.2179 32.7212 20.1442 32.6635 20.0865C32.6058 20.0288 32.5321 20 32.4423 20H23.9345L21.9345 18H17.0577C16.9679 18 16.8942 18.0288 16.8365 18.0865C16.7788 18.1442 16.75 18.2179 16.75 18.3077V29.6923C16.75 29.7821 16.7788 29.8558 16.8365 29.9135C16.8942 29.9712 16.9679 30 17.0577 30Z" fill="#212121"/>
</g>
</svg>
