<svg xmlns="http://www.w3.org/2000/svg" width="20" height="20" viewBox="0 0 20 20" fill="none">
  <path fill-rule="evenodd" clip-rule="evenodd" d="M4.5 1.6665C3.39543 1.6665 2.5 2.56193 2.5 3.6665V16.3332C2.5 17.4377 3.39543 18.3332 4.5 18.3332H15.5C16.6046 18.3332 17.5 17.4377 17.5 16.3332V3.6665C17.5 2.56193 16.6046 1.6665 15.5 1.6665H4.5ZM9.77362 12.6663L11.6841 10.6407H6.64082C6.2869 10.6407 6 10.3538 6 9.99984C6 9.64592 6.2869 9.35902 6.64082 9.35902H11.6841L9.77379 7.3346C9.54738 7.09467 9.54738 6.71981 9.77379 6.47988C10.0196 6.2194 10.4339 6.21943 10.6797 6.47995L13.6764 9.65674C13.8581 9.84938 13.8581 10.1503 13.6764 10.3429L10.6791 13.5203C10.4336 13.7806 10.0197 13.7808 9.77403 13.5207C9.54752 13.281 9.54734 12.9062 9.77362 12.6663Z" fill="#212121"/>
</svg>