<svg width="8" height="8" viewBox="0 0 8 8" fill="none" xmlns="http://www.w3.org/2000/svg">
<path d="M4 3.81084C3.48507 3.81084 3.04791 3.62583 2.68851 3.25581C2.32901 2.88569 2.14925 2.43556 2.14925 1.90542C2.14925 1.37528 2.32901 0.925205 2.68851 0.555184C3.04791 0.185061 3.48507 0 4 0C4.51493 0 4.95209 0.185061 5.31149 0.555184C5.671 0.925205 5.85075 1.37528 5.85075 1.90542C5.85075 2.43556 5.671 2.88569 5.31149 3.25581C4.95209 3.62583 4.51493 3.81084 4 3.81084ZM0 8V6.87934C0 6.69105 0.0545275 6.50962 0.163582 6.33506C0.272637 6.1605 0.425174 6.0094 0.621194 5.88176C1.14159 5.57371 1.6896 5.33753 2.26522 5.17322C2.84085 5.0089 3.4191 4.92674 4 4.92674C4.5809 4.92674 5.15915 5.0089 5.73478 5.17322C6.3104 5.33753 6.85841 5.57371 7.37881 5.88176C7.57483 5.99915 7.72736 6.1477 7.83642 6.32738C7.94547 6.50706 8 6.69105 8 6.87934V8H0Z" fill="#949494"/>
</svg>
