<svg xmlns="http://www.w3.org/2000/svg" width="24" height="24" viewBox="0 0 24 24" fill="none">
  <path d="M12.0075 20C10.907 20 9.87048 19.7918 8.89802 19.3754C7.92557 18.959 7.07443 18.386 6.34461 17.6565C5.6148 16.927 5.04154 16.0765 4.62484 15.1051C4.20828 14.1338 4 13.0959 4 11.9914C4 10.887 4.20821 9.85216 4.62462 8.88703C5.04103 7.9219 5.61399 7.07443 6.34352 6.34461C7.07304 5.6148 7.92352 5.04154 8.89495 4.62484C9.86623 4.20828 10.9041 4 12.0086 4C13.113 4 14.1478 4.2082 15.113 4.62461C16.0781 5.04103 16.9256 5.61399 17.6554 6.34352C18.3852 7.07304 18.9585 7.92176 19.3752 8.88967C19.7917 9.85773 20 10.892 20 11.9925C20 13.093 19.7918 14.1295 19.3754 15.102C18.959 16.0744 18.386 16.9256 17.6565 17.6554C16.927 18.3852 16.0782 18.9585 15.1103 19.3752C14.1423 19.7917 13.108 20 12.0075 20ZM12 18.8571C13.9048 18.8571 15.5238 18.1905 16.8571 16.8571C18.1905 15.5238 18.8571 13.9048 18.8571 12C18.8571 10.0952 18.1905 8.47619 16.8571 7.14286C15.5238 5.80952 13.9048 5.14286 12 5.14286C10.0952 5.14286 8.47619 5.80952 7.14286 7.14286C5.80952 8.47619 5.14286 10.0952 5.14286 12C5.14286 13.9048 5.80952 15.5238 7.14286 16.8571C8.47619 18.1905 10.0952 18.8571 12 18.8571Z" fill="#CACACA"/>
</svg>