<svg width="24" height="24" viewBox="0 0 24 24" fill="none" xmlns="http://www.w3.org/2000/svg">
<mask id="mask0_234_3992" style="mask-type:alpha" maskUnits="userSpaceOnUse" x="0" y="0" width="24" height="24">
<rect width="24" height="24" fill="#D9D9D9"/>
</mask>
<g mask="url(#mask0_234_3992)">
<path d="M9.6211 18.5C8.15827 18.5 6.90535 18.0103 5.86235 17.0308C4.81935 16.0513 4.29785 14.8455 4.29785 13.4135C4.29785 11.9815 4.81935 10.7773 5.86235 9.801C6.90535 8.82467 8.15827 8.3365 9.6211 8.3365H16.6421L13.8596 5.55375L14.9134 4.5L19.4999 9.0865L14.9134 13.673L13.8596 12.6193L16.6421 9.8365H9.6211C8.57744 9.8365 7.67935 10.1794 6.92685 10.8652C6.17418 11.5512 5.79785 12.4007 5.79785 13.4135C5.79785 14.4263 6.17418 15.2773 6.92685 15.9663C7.67935 16.6554 8.57744 17 9.6211 17H16.7979V18.5H9.6211Z" fill="#212121"/>
</g>
</svg>
