 <svg xmlns="http://www.w3.org/2000/svg" width="18" height="20" viewBox="0 0 18 20" fill="none">
  <path d="M15.0013 19.75C14.2376 19.75 13.5882 19.4827 13.053 18.948C12.5177 18.4132 12.25 17.7638 12.25 17C12.25 16.8752 12.2599 16.7459 12.2797 16.6122C12.2998 16.4784 12.3296 16.3551 12.3693 16.2423L4.973 11.9115C4.709 12.1743 4.40842 12.3798 4.07125 12.5278C3.73408 12.6759 3.377 12.75 3 12.75C2.23617 12.75 1.58683 12.4827 1.052 11.9482C0.517333 11.4137 0.25 10.7648 0.25 10.0013C0.25 9.23758 0.517333 8.58817 1.052 8.053C1.58683 7.51767 2.23617 7.25 3 7.25C3.377 7.25 3.73408 7.32408 4.07125 7.47225C4.40842 7.62025 4.709 7.82567 4.973 8.0885L12.3693 3.75775C12.3296 3.64492 12.2998 3.52158 12.2797 3.38775C12.2599 3.25408 12.25 3.12483 12.25 3C12.25 2.23617 12.5173 1.58683 13.0518 1.052C13.5863 0.517334 14.2353 0.25 14.9988 0.25C15.7624 0.25 16.4118 0.51725 16.947 1.05175C17.4823 1.58625 17.75 2.23525 17.75 2.99875C17.75 3.76242 17.4827 4.41183 16.948 4.947C16.4132 5.48233 15.7638 5.75 15 5.75C14.623 5.75 14.2659 5.67592 13.9288 5.52775C13.5916 5.37975 13.291 5.17433 13.027 4.9115L5.63075 9.24225C5.67042 9.35508 5.70025 9.47817 5.72025 9.6115C5.74008 9.74483 5.75 9.87367 5.75 9.998C5.75 10.1223 5.74008 10.2518 5.72025 10.3865C5.70025 10.5212 5.67042 10.6449 5.63075 10.7578L13.027 15.0885C13.291 14.8257 13.5916 14.6203 13.9288 14.4723C14.2659 14.3241 14.623 14.25 15 14.25C15.7638 14.25 16.4132 14.5173 16.948 15.0518C17.4827 15.5863 17.75 16.2353 17.75 16.9988C17.75 17.7624 17.4827 18.4118 16.9482 18.947C16.4137 19.4823 15.7648 19.75 15.0013 19.75ZM15 4.25C15.3475 4.25 15.6427 4.1285 15.8855 3.8855C16.1285 3.64267 16.25 3.3475 16.25 3C16.25 2.6525 16.1285 2.35733 15.8855 2.1145C15.6427 1.8715 15.3475 1.75 15 1.75C14.6525 1.75 14.3573 1.8715 14.1145 2.1145C13.8715 2.35733 13.75 2.6525 13.75 3C13.75 3.3475 13.8715 3.64267 14.1145 3.8855C14.3573 4.1285 14.6525 4.25 15 4.25ZM3 11.25C3.3475 11.25 3.64267 11.1285 3.8855 10.8855C4.1285 10.6427 4.25 10.3475 4.25 10C4.25 9.6525 4.1285 9.35733 3.8855 9.1145C3.64267 8.8715 3.3475 8.75 3 8.75C2.6525 8.75 2.35733 8.8715 2.1145 9.1145C1.8715 9.35733 1.75 9.6525 1.75 10C1.75 10.3475 1.8715 10.6427 2.1145 10.8855C2.35733 11.1285 2.6525 11.25 3 11.25ZM15 18.25C15.3475 18.25 15.6427 18.1285 15.8855 17.8855C16.1285 17.6427 16.25 17.3475 16.25 17C16.25 16.6525 16.1285 16.3573 15.8855 16.1145C15.6427 15.8715 15.3475 15.75 15 15.75C14.6525 15.75 14.3573 15.8715 14.1145 16.1145C13.8715 16.3573 13.75 16.6525 13.75 17C13.75 17.3475 13.8715 17.6427 14.1145 17.8855C14.3573 18.1285 14.6525 18.25 15 18.25Z" fill="#212121"/>
</svg>