<svg width="48" height="48" viewBox="0 0 48 48" fill="none" xmlns="http://www.w3.org/2000/svg">
<mask id="mask0_2691_897" style="mask-type:luminance" maskUnits="userSpaceOnUse" x="15" y="14" width="18" height="20">
<path d="M31.5 14H16.5C16.1022 14 15.7206 14.1756 15.4393 14.4882C15.158 14.8007 15 15.2246 15 15.6667V32.3333C15 32.7754 15.158 33.1993 15.4393 33.5118C15.7206 33.8244 16.1022 34 16.5 34H31.5C31.8978 34 32.2794 33.8244 32.5607 33.5118C32.842 33.1993 33 32.7754 33 32.3333V15.6667C33 15.2246 32.842 14.8007 32.5607 14.4882C32.2794 14.1756 31.8978 14 31.5 14Z" fill="white"/>
<path fill-rule="evenodd" clip-rule="evenodd" d="M24.2663 19.2441C24.6213 18.9186 25.1969 18.9186 25.5519 19.2441L28.7337 22.1607C28.9937 22.3991 29.0715 22.7575 28.9308 23.0689C28.7901 23.3803 28.4586 23.5833 28.0909 23.5833H19.9091C19.407 23.5833 19 23.2102 19 22.75C19 22.2898 19.407 21.9167 19.9091 21.9167H25.8962L24.2663 20.4226C23.9112 20.0972 23.9112 19.5695 24.2663 19.2441ZM19.0692 24.9311C19.2099 24.6197 19.5414 24.4167 19.9091 24.4167H28.0909C28.593 24.4167 29 24.7898 29 25.25C29 25.7102 28.593 26.0833 28.0909 26.0833H22.1038L23.7337 27.5774C24.0888 27.9028 24.0888 28.4305 23.7337 28.7559C23.3787 29.0814 22.8031 29.0814 22.4481 28.7559L19.2663 25.8393C19.0063 25.6009 18.9285 25.2425 19.0692 24.9311Z" fill="black"/>
</mask>
<g mask="url(#mask0_2691_897)">
<path d="M10.5 10.667H37.5V37.3337H10.5V10.667Z" fill="#B1B1B1"/>
</g>
</svg>
