<svg xmlns="http://www.w3.org/2000/svg" width="18" height="20" viewBox="0 0 18 20" fill="none">
  <mask id="mask0_2637_787" style="mask-type:luminance" maskUnits="userSpaceOnUse" x="0" y="0" width="18" height="20">
    <path d="M16.5 0H1.5C1.10218 0 0.720644 0.175595 0.43934 0.488155C0.158035 0.800716 0 1.22464 0 1.66667V18.3333C0 18.7754 0.158035 19.1993 0.43934 19.5118C0.720644 19.8244 1.10218 20 1.5 20H16.5C16.8978 20 17.2794 19.8244 17.5607 19.5118C17.842 19.1993 18 18.7754 18 18.3333V1.66667C18 1.22464 17.842 0.800716 17.5607 0.488155C17.2794 0.175595 16.8978 0 16.5 0Z" fill="white"/>
    <path fill-rule="evenodd" clip-rule="evenodd" d="M9.26626 5.24408C9.62128 4.91864 10.1969 4.91864 10.5519 5.24408L13.7337 8.16074C13.9937 8.39908 14.0715 8.75751 13.9308 9.0689C13.7901 9.3803 13.4586 9.58333 13.0909 9.58333H4.90911C4.40704 9.58333 4.00003 9.21024 4.00003 8.75C4.00003 8.28976 4.40704 7.91667 4.90911 7.91667H10.8962L9.26626 6.42259C8.91124 6.09715 8.91124 5.56951 9.26626 5.24408ZM4.06923 10.9311C4.20994 10.6197 4.54142 10.4167 4.90911 10.4167H13.0909C13.593 10.4167 14 10.7898 14 11.25C14 11.7102 13.593 12.0833 13.0909 12.0833H7.10384L8.73373 13.5774C9.08875 13.9028 9.08875 14.4305 8.73373 14.7559C8.37871 15.0814 7.80311 15.0814 7.44809 14.7559L4.26629 11.8393C4.00629 11.6009 3.92852 11.2425 4.06923 10.9311Z" fill="black"/>
  </mask>
  <g mask="url(#mask0_2637_787)">
    <path d="M-4.5 -3.33301H22.5V23.3337H-4.5V-3.33301Z" fill="#B1B1B1"/>
  </g>
</svg>