<svg xmlns="http://www.w3.org/2000/svg" width="20" height="20" viewBox="0 0 20 20" fill="none">
  <path fill-rule="evenodd" clip-rule="evenodd" d="M11.2377 5.55501C11.2377 4.32835 12.2671 3.33302 13.5353 3.33302C13.8365 3.33223 14.1348 3.38908 14.4133 3.50034C14.6918 3.6116 14.945 3.77507 15.1584 3.98142C15.3719 4.18777 15.5413 4.43295 15.6572 4.70295C15.7731 4.97296 15.833 5.26249 15.8337 5.55501C15.8337 6.78235 14.8042 7.77768 13.5353 7.77768C13.231 7.77789 12.9297 7.71943 12.6489 7.60568C12.3681 7.49193 12.1132 7.32515 11.8992 7.11501L8.71836 9.21901C8.80679 9.64768 8.76335 10.0922 8.59346 10.497L12.0811 12.7237C12.492 12.3984 13.006 12.2211 13.536 12.2217C13.8371 12.221 14.1355 12.2779 14.4139 12.3893C14.6924 12.5006 14.9455 12.6641 15.1589 12.8705C15.3723 13.077 15.5417 13.3222 15.6575 13.5922C15.7732 13.8623 15.8331 14.1518 15.8337 14.4443C15.8337 15.671 14.8042 16.6663 13.5353 16.6663C13.2343 16.667 12.936 16.6101 12.6576 16.4988C12.3792 16.3875 12.126 16.224 11.9127 16.0177C11.6993 15.8114 11.5299 15.5662 11.4141 15.2962C11.2982 15.0263 11.2383 14.7368 11.2377 14.4443C11.2371 14.1328 11.3047 13.8246 11.436 13.5403L7.97582 11.333C7.55665 11.6867 7.01988 11.8812 6.46464 11.8803C6.16351 11.881 5.8652 11.8241 5.58673 11.7128C5.30827 11.6014 5.05512 11.4379 4.84175 11.2315C4.62837 11.0251 4.45895 10.7798 4.34318 10.5098C4.2274 10.2398 4.16753 9.9502 4.16699 9.65768C4.16762 9.36521 4.22756 9.07573 4.34337 8.80577C4.45919 8.53581 4.62862 8.29066 4.84199 8.08432C5.05535 7.87797 5.30847 7.71449 5.58689 7.60319C5.86531 7.4919 6.16357 7.43498 6.46464 7.43568C7.19484 7.43568 7.84405 7.76434 8.26474 8.27634L11.3482 6.23701C11.2746 6.01675 11.2373 5.78658 11.2377 5.55501Z" fill="#212121"/>
</svg>