<svg width="20" height="20" viewBox="0 0 20 20" fill="none" xmlns="http://www.w3.org/2000/svg">
<mask id="mask0_2722_29309" style="mask-type:luminance" maskUnits="userSpaceOnUse" x="2" y="1" width="16" height="18">
<path d="M16.25 1.66699H3.75C3.41848 1.66699 3.10054 1.81332 2.86612 2.07379C2.6317 2.33426 2.5 2.68752 2.5 3.05588V16.9448C2.5 17.3131 2.6317 17.6664 2.86612 17.9269C3.10054 18.1873 3.41848 18.3337 3.75 18.3337H16.25C16.5815 18.3337 16.8995 18.1873 17.1339 17.9269C17.3683 17.6664 17.5 17.3131 17.5 16.9448V3.05588C17.5 2.68752 17.3683 2.33426 17.1339 2.07379C16.8995 1.81332 16.5815 1.66699 16.25 1.66699Z" fill="white"/>
<path fill-rule="evenodd" clip-rule="evenodd" d="M10.2225 6.03738C10.5184 5.76619 10.9981 5.76619 11.2939 6.03738L13.9454 8.46794C14.1621 8.66655 14.2269 8.96524 14.1096 9.22474C13.9924 9.48423 13.7161 9.65343 13.4097 9.65343H6.59158C6.17318 9.65343 5.83401 9.34252 5.83401 8.95898C5.83401 8.57545 6.17318 8.26454 6.59158 8.26454H11.5808L10.2225 7.01948C9.92669 6.74828 9.92669 6.30858 10.2225 6.03738ZM5.89167 10.7766C6.00893 10.5171 6.28517 10.3479 6.59158 10.3479H13.4097C13.8281 10.3479 14.1673 10.6588 14.1673 11.0423C14.1673 11.4258 13.8281 11.7368 13.4097 11.7368H8.42052L9.77876 12.9818C10.0746 13.253 10.0746 13.6927 9.77876 13.9639C9.48291 14.2351 9.00325 14.2351 8.7074 13.9639L6.05589 11.5334C5.83923 11.3348 5.77442 11.0361 5.89167 10.7766Z" fill="black"/>
</mask>
<g mask="url(#mask0_2722_29309)">
<path d="M-1.25 -1.11035H21.25V21.1119H-1.25V-1.11035Z" fill="#CACACA"/>
</g>
</svg>
