<svg xmlns="http://www.w3.org/2000/svg" width="16" height="16" viewBox="0 0 16 16" fill="none">
  <path fill-rule="evenodd" clip-rule="evenodd" d="M8.98956 4.44435C8.98956 3.46302 9.81309 2.66675 10.8277 2.66675C11.0686 2.66612 11.3072 2.71161 11.53 2.80061C11.7528 2.88962 11.9554 3.0204 12.1262 3.18548C12.2969 3.35055 12.4325 3.5467 12.5252 3.7627C12.6179 3.97871 12.6658 4.21033 12.6663 4.44435C12.6663 5.42622 11.8428 6.22248 10.8277 6.22248C10.5842 6.22266 10.3432 6.17589 10.1185 6.08488C9.89386 5.99388 9.69001 5.86046 9.51881 5.69235L6.97411 7.37555C7.04484 7.71849 7.01009 8.07407 6.87418 8.39795L9.6643 10.1793C9.99302 9.91908 10.4042 9.77721 10.8282 9.77768C11.0691 9.77712 11.3078 9.82268 11.5305 9.91174C11.7533 10.0008 11.9558 10.1316 12.1265 10.2968C12.2972 10.4619 12.4328 10.6581 12.5254 10.8741C12.618 11.0902 12.6659 11.3218 12.6663 11.5558C12.6663 12.5371 11.8428 13.3334 10.8277 13.3334C10.5868 13.334 10.3482 13.2884 10.1255 13.1994C9.90274 13.1104 9.70025 12.9796 9.52955 12.8145C9.35886 12.6494 9.22332 12.4533 9.13066 12.2373C9.03801 12.0214 8.99006 11.7898 8.98956 11.5558C8.98913 11.3066 9.04321 11.06 9.14822 10.8326L6.38007 9.06675C6.04474 9.34973 5.61531 9.50526 5.17113 9.50461C4.93022 9.50518 4.69157 9.45962 4.4688 9.37055C4.24603 9.28148 4.04351 9.15064 3.87281 8.98552C3.70211 8.82039 3.56658 8.6242 3.47396 8.40817C3.38133 8.19214 3.33344 7.9605 3.33301 7.72648C3.33351 7.49251 3.38146 7.26093 3.47411 7.04496C3.56677 6.82899 3.70231 6.63287 3.873 6.46779C4.0437 6.30272 4.24619 6.17193 4.46893 6.0829C4.69166 5.99386 4.93027 5.94832 5.17113 5.94888C5.75528 5.94888 6.27465 6.21182 6.6112 6.62142L9.07795 4.98995C9.01911 4.81374 8.98928 4.6296 8.98956 4.44435Z" fill="#00C2ED"/>
</svg>