<svg width="21" height="20" viewBox="0 0 21 20" fill="none" xmlns="http://www.w3.org/2000/svg">
<path fill-rule="evenodd" clip-rule="evenodd" d="M11.7367 5.5555C11.7367 4.32884 12.7661 3.3335 14.0343 3.3335C14.3355 3.33272 14.6338 3.38957 14.9123 3.50083C15.1908 3.61208 15.444 3.77556 15.6574 3.98191C15.8709 4.18825 16.0404 4.43344 16.1562 4.70344C16.2721 4.97344 16.3321 5.26298 16.3327 5.5555C16.3327 6.78283 15.3033 7.77817 14.0343 7.77817C13.7301 7.77838 13.4288 7.71992 13.1479 7.60617C12.8671 7.49241 12.6123 7.32564 12.3983 7.1155L9.21739 9.2195C9.30581 9.64817 9.26237 10.0926 9.09249 10.4975L12.5801 12.7242C12.991 12.3989 13.505 12.2216 14.035 12.2222C14.3362 12.2215 14.6345 12.2784 14.9129 12.3897C15.1914 12.5011 15.4446 12.6646 15.6579 12.871C15.8713 13.0774 16.0407 13.3227 16.1565 13.5927C16.2723 13.8628 16.3321 14.1523 16.3327 14.4448C16.3327 15.6715 15.3033 16.6668 14.0343 16.6668C13.7333 16.6675 13.435 16.6106 13.1566 16.4993C12.8782 16.388 12.6251 16.2245 12.4117 16.0182C12.1983 15.8118 12.0289 15.5667 11.9131 15.2967C11.7973 15.0268 11.7373 14.7373 11.7367 14.4448C11.7362 14.1332 11.8038 13.8251 11.935 13.5408L8.47484 11.3335C8.05568 11.6872 7.5189 11.8816 6.96366 11.8808C6.66254 11.8815 6.36422 11.8246 6.08576 11.7132C5.80729 11.6019 5.55414 11.4384 5.34077 11.232C5.12739 11.0255 4.95798 10.7803 4.8422 10.5103C4.72642 10.2402 4.66656 9.95069 4.66602 9.65816C4.66665 9.3657 4.72658 9.07622 4.8424 8.80626C4.95822 8.5363 5.12765 8.29114 5.34101 8.0848C5.55438 7.87846 5.8075 7.71498 6.08592 7.60368C6.36433 7.49239 6.66259 7.43547 6.96366 7.43617C7.69386 7.43617 8.34307 7.76483 8.76376 8.27683L11.8472 6.2375C11.7736 6.01723 11.7364 5.78707 11.7367 5.5555Z" fill="white"/>
</svg>
