<svg xmlns="http://www.w3.org/2000/svg" width="24" height="24" viewBox="0 0 24 24" fill="none">
  <path fill-rule="evenodd" clip-rule="evenodd" d="M13.4848 6.66641C13.4848 5.19441 14.7201 4.00001 16.242 4.00001C16.6034 3.99906 16.9614 4.06729 17.2956 4.2008C17.6297 4.33431 17.9336 4.53047 18.1897 4.77809C18.4458 5.02571 18.6492 5.31993 18.7883 5.64393C18.9273 5.96794 18.9992 6.31538 19 6.66641C19 8.13921 17.7647 9.3336 16.242 9.3336C15.8769 9.33386 15.5153 9.26371 15.1783 9.12721C14.8413 8.9907 14.5355 8.79057 14.2787 8.5384L10.4616 11.0632C10.5678 11.5776 10.5156 12.111 10.3118 12.5968L14.4969 15.2688C14.99 14.8785 15.6068 14.6657 16.2428 14.6664C16.6042 14.6656 16.9622 14.7339 17.2963 14.8675C17.6305 15.0011 17.9342 15.1974 18.1903 15.445C18.4463 15.6927 18.6496 15.987 18.7886 16.3111C18.9275 16.6351 18.9994 16.9826 19 17.3336C19 18.8056 17.7647 20 16.242 20C15.8807 20.0008 15.5228 19.9325 15.1887 19.799C14.8546 19.6654 14.5509 19.4692 14.2948 19.2216C14.0388 18.974 13.8355 18.6798 13.6965 18.3559C13.5575 18.0319 13.4856 17.6846 13.4848 17.3336C13.4842 16.9597 13.5653 16.5899 13.7228 16.2488L9.57059 13.6C9.06759 14.0245 8.42346 14.2578 7.75718 14.2568C7.39583 14.2576 7.03784 14.1893 6.70369 14.0557C6.36953 13.9221 6.06575 13.7258 5.8097 13.4782C5.55365 13.2305 5.35036 12.9362 5.21142 12.6121C5.07249 12.2881 5.00065 11.9406 5 11.5896C5.00076 11.2386 5.07268 10.8913 5.21166 10.5673C5.35064 10.2434 5.55396 9.94918 5.80999 9.70157C6.06603 9.45396 6.36978 9.25778 6.70388 9.12422C7.03798 8.99067 7.39589 8.92236 7.75718 8.9232C8.63341 8.9232 9.41247 9.3176 9.91729 9.932L13.6174 7.48481C13.5292 7.22048 13.4844 6.94429 13.4848 6.66641Z" fill="#616161"/>
</svg>