<svg width="20" height="20" viewBox="0 0 20 20" fill="none" xmlns="http://www.w3.org/2000/svg">
<path d="M2.5 5.43652C2.5 5.10735 2.7725 4.84152 3.10833 4.84152H7.09833C7.10333 4.13985 7.18 3.17902 7.875 2.51402C8.4475 1.96799 9.20887 1.66434 10 1.66652C10.7911 1.66434 11.5525 1.96799 12.125 2.51402C12.82 3.17902 12.8967 4.13985 12.9017 4.84152H16.8917C17.2275 4.84152 17.5 5.10818 17.5 5.43652C17.4993 5.51559 17.4831 5.59376 17.4521 5.66653C17.4211 5.73929 17.3761 5.80522 17.3196 5.86051C17.263 5.91581 17.1961 5.95938 17.1227 5.98873C17.0492 6.01808 16.9707 6.03262 16.8917 6.03152H3.10833C3.02926 6.03262 2.95075 6.01808 2.87732 5.98873C2.80388 5.95938 2.73698 5.91581 2.68044 5.86051C2.62391 5.80522 2.57886 5.73929 2.5479 5.66653C2.51693 5.59376 2.50065 5.51559 2.5 5.43652Z" fill="#212121"/>
<path fill-rule="evenodd" clip-rule="evenodd" d="M9.66265 18.3334H10.336C12.6552 18.3334 13.8143 18.3334 14.5693 17.595C15.3227 16.8567 15.3993 15.645 15.5535 13.2234L15.776 9.7342C15.8593 8.42003 15.901 7.76253 15.5235 7.34587C15.1452 6.9292 14.5068 6.9292 13.2293 6.9292H6.76932C5.49182 6.9292 4.85265 6.9292 4.47515 7.34587C4.09765 7.76253 4.13848 8.42003 4.22265 9.7342L4.44515 13.2242C4.59932 15.6459 4.67598 16.8575 5.43015 17.595C6.18432 18.3334 7.34348 18.3334 9.66265 18.3334ZM8.53765 10.1575C8.50432 9.79587 8.19765 9.53253 7.85432 9.56837C7.51015 9.6042 7.26015 9.9267 7.29432 10.2884L7.71098 14.6742C7.74432 15.0359 8.05099 15.2992 8.39432 15.2634C8.73849 15.2267 8.98849 14.905 8.95432 14.5434L8.53765 10.1575ZM12.1452 9.56837C12.4885 9.6042 12.7393 9.9267 12.7043 10.2884L12.2877 14.6742C12.2543 15.0359 11.9468 15.2992 11.6043 15.2634C11.2602 15.2267 11.0102 14.905 11.0443 14.5434L11.461 10.1567C11.4943 9.79587 11.8018 9.5317 12.1443 9.56753" fill="#212121"/>
</svg>
