<svg width="24" height="34" viewBox="0 0 24 34" fill="none" xmlns="http://www.w3.org/2000/svg">
<path d="M10.7475 29.1836H9.82172V25.1875H7.67719V24.4258H9.82172V21.543H10.7475V29.1836ZM2.15766 27.0977C2.66547 26.918 3.12055 26.6543 3.52289 26.3066C3.92523 25.959 4.23969 25.5586 4.46625 25.1055C4.69281 24.6484 4.80609 24.1758 4.80609 23.6875V23.1484H2.45063V22.3867H8.06391V23.1484H5.73188V23.6875C5.73188 24.1328 5.8393 24.5664 6.05414 24.9883C6.27289 25.4102 6.57563 25.7852 6.96234 26.1133C7.35297 26.4414 7.79828 26.6914 8.29828 26.8633L7.81781 27.6016C7.23578 27.3906 6.72406 27.0781 6.28266 26.6641C5.84516 26.2461 5.51313 25.7656 5.28656 25.2227C5.06 25.8281 4.71625 26.3594 4.25531 26.8164C3.79438 27.2734 3.25531 27.6172 2.63813 27.8477L2.15766 27.0977ZM4.05609 28.4922H4.98188V30.9531H11.0405V31.7266H4.05609V28.4922ZM15.4088 24.7422C15.4127 25.3047 15.5045 25.8574 15.6841 26.4004C15.8677 26.9395 16.1314 27.4277 16.4752 27.8652C16.8189 28.3027 17.2213 28.6445 17.6822 28.8906L17.1548 29.582C16.647 29.3047 16.2076 28.9141 15.8365 28.4102C15.4654 27.9023 15.1822 27.3262 14.9869 26.6816C14.7955 27.3691 14.5142 27.9883 14.1431 28.5391C13.7759 29.0859 13.3384 29.5117 12.8306 29.8164L12.2798 29.1133C12.7408 28.8477 13.1412 28.4824 13.481 28.0176C13.8209 27.5527 14.0806 27.0352 14.2603 26.4648C14.4439 25.8945 14.5377 25.3203 14.5416 24.7422V24.2266H12.5611V23.4648H14.5416V21.918H15.4205V23.4648H17.3658V24.2266H15.4088V24.7422ZM16.6509 25.6445H18.2916V21.7891H19.1588V31.4102H18.2916V26.4297H16.6509V25.6445ZM20.3892 21.5312H21.2681V31.9492H20.3892V21.5312Z" fill="#212121"/>
<circle opacity="0.5" cx="12" cy="8" r="8" fill="#212121"/>
<path d="M8.08057 8.1101L11.0199 11.0495L15.9189 6.15051" stroke="white" stroke-width="2" stroke-linecap="round" stroke-linejoin="round"/>
</svg>
